/* XPM */
static char *brick2[] = {
/* columns rows colors chars-per-pixel */
"32 32 83 1 ",
"  c #6A6A6A",
". c gray44",
"X c #727272",
"o c gray45",
"O c #747474",
"+ c gray46",
"@ c #777777",
"# c gray47",
"$ c #797979",
"% c gray48",
"& c #7B7B7B",
"* c #7C7C7C",
"= c gray49",
"- c #7E7E7E",
"; c gray50",
": c #808080",
"> c #818181",
", c gray51",
"< c #838383",
"1 c #848484",
"2 c gray52",
"3 c #868686",
"4 c gray53",
"5 c #888888",
"6 c #898989",
"7 c gray54",
"8 c #8B8B8B",
"9 c gray55",
"0 c #8D8D8D",
"q c #8E8E8E",
"w c gray56",
"e c #909090",
"r c gray57",
"t c #929292",
"y c #939393",
"u c gray58",
"i c #959595",
"p c gray59",
"a c #979797",
"s c #989898",
"d c gray60",
"f c #9A9A9A",
"g c #9B9B9B",
"h c gray61",
"j c #9D9D9D",
"k c gray62",
"l c #9F9F9F",
"z c #A0A0A0",
"x c gray63",
"c c #A2A2A2",
"v c gray64",
"b c #A4A4A4",
"n c #A5A5A5",
"m c gray65",
"M c #A7A7A7",
"N c gray66",
"B c #A9A9A9",
"V c #AAAAAA",
"C c gray67",
"Z c #ACACAC",
"A c gray68",
"S c #AEAEAE",
"D c #AFAFAF",
"F c gray69",
"G c #B1B1B1",
"H c #B2B2B2",
"J c gray70",
"K c #B4B4B4",
"L c gray71",
"P c #B6B6B6",
"I c #B7B7B7",
"U c gray72",
"Y c #B9B9B9",
"T c gray73",
"R c #BBBBBB",
"E c #BCBCBC",
"W c gray74",
"Q c gray",
"! c gray75",
"~ c #C0C0C0",
"^ c #C1C1C1",
"/ c gray76",
"( c #C3C3C3",
/* pixels */
"7ifaiaiwhzlhlvjryskxzklxfbmcNFc6",
"lSULHKJDADZBAHBfznCSZCZAKETKY~St",
"iBUPGHJH!!RUQ^LbDKTETUYTMAZBJECq",
"aS!!UYEEGHDZHKNivNSDACCZIEYJT~Aw",
"9lSANVZVGIUIYRGcAHUYPKJLLEIVmneO",
"2rspidsyO,98662-,49074342pjitp0%",
"SGDVAKFmrNTYHHLLGLTRIKJK>jGSSYEL",
"RIDBDUHb2cTUSALRFLTTPJHJ9Z^TGPRI",
"HIIJLEYFuBYLAAHKPGFKILJL*jTWKJUR",
"ZGGCCSCxkFWRURWRTIITERTR;dDGZCAA",
"5eyqqte5 +&%&=$.o+@@#$#@@3rretw5",
"wgvvnZABLYULIYAkMDJGFJJFlbnvMVvi",
"fBLLIW!EJLJGLICdkZKSZGHATTPJYWHx",
"aMJGADFAFKLKUEHvkJWKFUTHHHSZGLBa",
"hSRYKKLHFIYKHHBhgK~LFTEJHPPKUTDk",
";ubbzvmbknnfe6-X=dmfulxaslcxbnf7",
"adaajci<&0gdiipyssddaiyt:dMxjbnh",
"BCBNAGnurmPKDDHGZASSACBNtAQIHYEP",
"E!WYW~LmfG(/RE~/WQ!!!WRT4bIFVGPH",
"FJHASGNg6zHFBCDFCZASSACVqZQUHYQT",
"LTYJJPFmlH~!RWWTGHJKLKJH8bHZBGHB",
"<77<,31*-6eeet9>235787665dxghnlq",
"SLIFDKLDGJHHUTZdHKPUYYUISPPGI~Hd",
"ZKPFDLIJULDDURMwSDGJLLKKPYKSU^Se",
"cGTKDJTE^EKL!^B9kH!TFGIYETKJTWAa",
"hNDCBASVFDZZKLv8pmGSVADSSGFSJPVd",
"0uapdji6qiddght13epiajfy6ysasfi8",
"NCCCHLMusMGDZSZmnBVBSJZkibDACSSV",
"KLJJRQSdgATIHKIIPIKGPTDklFWEURWR",
"GHDSKIVasVPHZDJJHLJSFJNdaMHGSGHS",
"ITUJPTHnbJEIJPYIHYTPPUHMvDIPPYPS",
"yspeeue42tsueuir5tauypy8ujcxvmxp"
};
