/* XPM */
static char *conc[] = {
/* columns rows colors chars-per-pixel */
"32 32 54 1 ",
"  c #7C6E54",
". c #787155",
"X c #7A7358",
"o c #7E785E",
"O c #85775D",
"+ c #847A5C",
"@ c #8A7D5D",
"# c #847E62",
"$ c #8D7F65",
"% c #878167",
"& c #8D8166",
"* c #8B856A",
"= c #8E886D",
"- c #928565",
"; c #93866B",
": c #94896C",
"> c #9A8D6D",
", c #8F8E70",
"< c #958D71",
"1 c #9A8D73",
"2 c #959175",
"3 c #9C9274",
"4 c #969479",
"5 c #9C957A",
"6 c #9E997D",
"7 c #A29575",
"8 c #A1957A",
"9 c #A3997C",
"0 c #AA9D7D",
"q c #9C9781",
"w c #9E9A83",
"e c #A39D82",
"r c #A99E82",
"t c #A39F88",
"y c #A6A184",
"u c #ABA185",
"i c #A6A28A",
"p c #ACA58A",
"a c #AEA98C",
"s c #B0A383",
"d c #B1A68B",
"f c #B1A98E",
"g c #AAA790",
"h c #AEA992",
"j c #B3AC93",
"k c #B9AE94",
"l c #B3AF99",
"z c #B5B094",
"x c #B9B296",
"c c #B7B29A",
"v c #BCB59A",
"b c #BFB99D",
"n c #C0B99D",
"m c #C1BCA4",
/* pixels */
"p32yp6ev9ff55pp5zhlmmjdh18337777",
"2e9<3jxy9fxy9pp6hghccatp89r00u00",
"<52*5xxuaxf959pyhgghhtrt89rus000",
"y&+5faaxzjy=*5paclhlhpaae89877>7",
"u*%6fffvffy329pjccchhhfadr73>>77",
"565=9bbpeafxfpyyhlhgphjpkdp07000",
"209<5jxyfjxbxpewighiihjprusus000",
"y2<9y59xnxzfy99ytghggcjp;:70s000",
"5229yyaxby5uay<=2gtte5<p53;->700",
"5:*:59axxfyyy922ehhtgtej9:;>3>70",
"2+.o:6pzyff95992qgtthpepp:;77>-9",
"2%X*9pff=yp35ap=4tetclpdj12ps--7",
"5:;0xbbz<pp5yxpo2ttgmmlvf3>u0-@>",
":=2pbxapuzzyfnyX$qtgvcdly:;70-&-",
"*%2uap55pfa9pa9%oqtijp8ye3>37>->",
";:5ffy9659y559y4*thhli5py977777>",
"<1rkf69aa6y44a46tttttrtpddp737>-",
"$$1rssafy4y4ya46tgitttpprdr7>1>-",
";;;10fa0y6ayya,4gtgippddyur3>>>-",
";1>-5p09a6zyyy,4igtipghgudr7>7>-",
"O$;140bxa6ay6a4itttttgappdu7>7>>",
";$;800axa6a66a6zitqtildpsfu8>77-",
"8$$ra06sy6za6z6hgtwtgljdpdr7>7>-",
"8 O8x06zaaba6g,6giwilllhyu07>>>-",
"$$$17rdd6zxa60gattqqrtppjdsu07-O",
"$$$1rddnyzxayyyytwqtipppr0e97>-@",
"$$17rdkkaazaay64qwtghjatyr0007--",
";118rddr0yaaaza6wwtghjdpdurr00>>",
"8$1rdrrr0iyyazi4iiiiajjjr09977>-",
"rrrrdddraaayiay2hhigfljjpu9907>>",
"rrrrddddaaayyyw4hghllljppr000007",
"r81qrdjk0yay6iithglcvcpe88770000"
};
