/* XPM */
static char *wood[] = {
/* columns rows colors chars-per-pixel */
"32 32 139 2 ",
"   c #6B371F",
".  c #6F3B23",
"X  c #6E3E2E",
"o  c #713D25",
"O  c #643E35",
"+  c #683E30",
"@  c #74412C",
"#  c #79452E",
"$  c #63403A",
"%  c #6B453D",
"&  c #724331",
"*  c #7D4932",
"=  c #74493B",
"-  c #754D41",
";  c #7E5245",
":  c #8A4D2E",
">  c #814D35",
",  c #85513A",
"<  c #8A553C",
"1  c #8E593F",
"2  c #925536",
"3  c #925739",
"4  c #935A3D",
"5  c #9B5E3F",
"6  c #855646",
"7  c #895740",
"8  c #8D5A43",
"9  c #815548",
"0  c #845A4C",
"q  c #8C5D4B",
"w  c #915D43",
"e  c #9B5F40",
"r  c #925F4A",
"t  c #8E614E",
"y  c #946146",
"u  c #9D6143",
"i  c #95634B",
"p  c #9A664B",
"a  c #9D684C",
"s  c #8E6252",
"d  c #8E685D",
"f  c #946552",
"g  c #966851",
"h  c #9B6A54",
"j  c #91675B",
"k  c #966B5B",
"l  c #9A6D5B",
"z  c #9E715D",
"x  c #A16445",
"c  c #A16648",
"v  c #A56A4B",
"b  c #A26C53",
"n  c #AA6F51",
"m  c #A16F58",
"M  c #A47157",
"N  c #AD7354",
"B  c #A4735D",
"V  c #AB765C",
"C  c #AB785D",
"Z  c #B17556",
"A  c #B17759",
"S  c #B47A5C",
"D  c #B97E5E",
"F  c #916D64",
"G  c #9B7162",
"H  c #947269",
"J  c #9F796E",
"K  c #99746B",
"L  c #9D7B75",
"P  c #9E7D78",
"I  c #A37460",
"U  c #AB7761",
"Y  c #A67965",
"T  c #AC7A62",
"R  c #A77D6F",
"E  c #AC7E6B",
"W  c #B27E64",
"Q  c #B87F61",
"!  c #A27C73",
"~  c #AB7F70",
"^  c #A17E78",
"/  c #AE816E",
"(  c #B68165",
")  c #BC8263",
"_  c #B4826A",
"`  c #BA856C",
"'  c #BC896F",
"]  c #AD8275",
"[  c #A5827A",
"{  c #AC857B",
"}  c #AF897E",
"|  c #B38574",
" . c #B98670",
".. c #B68875",
"X. c #BD8A72",
"o. c #B18679",
"O. c #B4897C",
"+. c #BC8D7C",
"@. c #BE917C",
"#. c #C08566",
"$. c #C08769",
"%. c #C38A6D",
"&. c #C88D6F",
"*. c #C38E74",
"=. c #CA8F71",
"-. c #C28F79",
";. c #C49176",
":. c #CB9275",
">. c #C5927A",
",. c #CA957C",
"<. c #CD997D",
"1. c #D19779",
"2. c #D29B7E",
"3. c #A48580",
"4. c #AD8981",
"5. c #B48E83",
"6. c #B98F83",
"7. c #B69087",
"8. c #BC9183",
"9. c #BB9489",
"0. c #BD988F",
"q. c #C49583",
"w. c #CB9781",
"e. c #C79886",
"r. c #CD9A82",
"t. c #C19789",
"y. c #C5988A",
"u. c #CB9C8B",
"i. c #D29D84",
"p. c #D19E89",
"a. c #C49D91",
"s. c #C99F91",
"d. c #CFA08E",
"f. c #D4A186",
"g. c #DCA284",
"h. c #D4A18B",
"j. c #DAA589",
"k. c #CCA191",
"l. c #E1A98E",
/* pixels */
": v N N Z n N %.' 2.w ' X.;.X.t y _ _ _ W # ,.r.,.r.# *.-.V W < ",
": v N N Z N A %.' <.w ' X.;.X.7 y ' ' _ W o -.r.*.>.o ' *.m U > ",
": v Z Z S Z V &.( :.y X.X.;.' < i X.X.' V . *.w._ *.. X.*.B U * ",
"2 n Z Z ( A Z ' ( <.y ;.X.@.` 1 p ;.;.' B   X.i.` -.o -.,.W W > ",
"5 Z ) Z ) A N ) C :.y ;.X.X. .y h ,.,.' B   *.i.X.,.# w.w.W  .< ",
"x Z Z S #.S N ( ( <.p ;.X.X...i V r.,.X.V o -.p.;.w.# ,.w.W ` < ",
"5 Z ) ) &.) S ` ( 2.a ;.X.;.@.a T r.,.' W # w.f.,.i.# ,.w.W  .< ",
"5 N A ) &.) ) %.( 2.a <.X.X.>.h _ i.>.X.W > w.p.p.h.> w.w.W X.8 ",
"5 Z #.#.Z ) ) =.( 2.p ' X.<.f.g W ,.>.>.X.* >.r.j.p., p.,._ *., ",
"u Z #.) ) ) ) ) ` <.y ;.X.<.@.h W ,.>.-.X.* ,.r.f.i., f.,.W -.7 ",
"x Z ) ) ) ) ) ) ' <.w <.<.@.;.z W ,.-.-.X.* ,.i.f.r.> f.,._ >.8 ",
"x Z Z ) #.#.) ) ' ;.w 2.<.X.X.C U -.*.*.X.* ,.p.i.w.> p.,._ ,.w ",
"x n ) ) #.=.1.&.&.1.y 2.,.' X./ V ;.*.*.X.* ,.i.i.w.> p.w.` ,.w ",
"x Z ) ) &.=.1.1.X.2.y ;.' ( ' C U -.*.-. .# >.i.i.,.> i.,.` w.w ",
"x Z #.) #.&.1.2.;.j.p ' / ( ' z T >.*.-.` # -.w.i.w.> i.,._ >.8 ",
"x Z #.) Z #.=.2.&.l.a ( M ( X.g T >.+.-.` # *.w.i.i., i.w._ >.8 ",
"a N ( &.) A 2.1.:.2.1 ) ( :.2.S W u.q.-.E @ -.p.h.w.8 r.:.:.*.8 ",
"c Z A &.) ( g.:.1.g.e #.) :.2.C E u.q.6.| & -.p.h.w.r r.w.-.=.w ",
"v ( C =.( Z 2.*.:.j.p &.' &.:.h ~ y.8.6.~ + O.e.k.q.q r.w.-.w.r ",
"M C ( X.( C >.' ' j.p ;.' ;.X.g ~ 9.5.O.~ + ..q.u.q.q w.-.-.q.r ",
"M C ( ' ( B ;.( ( f.g >.@.;.>.k ~ 9.O.{ ! O o.6.t.t.0 y.q.q.q.r ",
"h B z ../ z @.B Y r.g f.>.>.,.z L 4.[ [ ! O } 5.6.t.0 t.~ ~ +.q ",
"g l z ..Y z ..z B q.f 8.@.@.@.l K 4.P ^ L O 4.7.7.6.0 t.o.~ o.0 ",
"g l l / / z ..z z @.t @.] | ..d H 3.P P L O 4.7.7.5.0 t.~ ~ ~ 9 ",
"g / l / / G @.| l | s 8.Y / q.l F 3.L P ^ % 7.t.4.a.= o.~ G ~ 0 ",
"g G l B C z ' / I ..q -.E | q.k F ^ L ^ ^ $ 7.9.4.a.- 4.o.G ~ s ",
"t B z / B g / ..E X.8 -._ @.w.f j ^ ^ { ^ % 7.9.o.s.9 q.~ I ~ j ",
"y ( ( / B y ( ' %.-.7 -.X.,.<.t j { o.4.4.% 6.t.o.d.6 y.~ I ~ f ",
"1 ( ( ( C p ` X.-.w.7 -.%.w.w.8 j o.o.6.o.= q.u.o.u.6 w.q.U W r ",
"3 ( C ) C a ' &.:.:.3 =.%.1.1.7 j 6.O.6.o.= y.p.+.u., w.-.U  .8 ",
"3 N n ) A v %.&.1.1.e =.$.=.=.6 h +.o.+.~ & q.h.-.w.* -.-.W ` 7 ",
"3 n v ( A v %.%.=.w.e =.$.=.&.2 h o.o.~ U X -.h.-.w.# &.-.W ` : "
};
