/* XPM */
static char *_dc7c604917944868491f7971d014730[] = {
/* columns rows colors chars-per-pixel */
"280 12 249 2 ",
"   c None",
".  c #322E1D",
"X  c #34301F",
"o  c #383320",
"O  c #393421",
"+  c #393522",
"@  c #3A3623",
"#  c #3C3827",
"$  c #3E3A26",
"%  c #3C3928",
"&  c #3D3928",
"*  c #3D3B2B",
"=  c #3E3B2A",
"-  c #3F3C2C",
";  c #403A27",
":  c #403B27",
">  c #413B28",
",  c #423E29",
"<  c #433E2A",
"1  c #453F2B",
"2  c #403E2E",
"3  c #403E2F",
"4  c #413E2F",
"5  c #403F2F",
"6  c #413F2F",
"7  c #423E2E",
"8  c #423E2F",
"9  c #423F2F",
"0  c #433F2F",
"q  c #443F2C",
"w  c #453F2C",
"e  c #463F2E",
"r  c #423F30",
"t  c #433F30",
"y  c #443F32",
"u  c #443F33",
"i  c #42402F",
"p  c #45402C",
"a  c #46402D",
"s  c #46412D",
"d  c #47422D",
"f  c #44402E",
"g  c #424030",
"h  c #434030",
"j  c #424031",
"k  c #444131",
"l  c #474130",
"z  c #474230",
"x  c #444232",
"c  c #474433",
"v  c #474134",
"b  c #464235",
"n  c #474336",
"m  c #484433",
"M  c #484434",
"N  c #484534",
"B  c #494534",
"V  c #484535",
"C  c #494535",
"Z  c #494635",
"A  c #4A4635",
"S  c #4A4735",
"D  c #494636",
"F  c #4A4636",
"G  c #4B4636",
"H  c #4A4736",
"J  c #4B4736",
"K  c #4C4836",
"L  c #4F4B3C",
"P  c #575038",
"I  c #585239",
"U  c #59533A",
"Y  c #5C563A",
"T  c #5D573B",
"R  c #5E573B",
"E  c #5B563F",
"W  c #635B3A",
"Q  c #60593D",
"!  c #615A3E",
"~  c #635C3F",
"^  c #6C623E",
"/  c #555341",
"(  c #595540",
")  c #595541",
"_  c #5A5641",
"`  c #585542",
"'  c #5A5642",
"]  c #5B5642",
"[  c #5A5742",
"{  c #5B5742",
"}  c #5A5643",
"|  c #5B5643",
" . c #5A5743",
".. c #5B5743",
"X. c #5C5743",
"o. c #5B5744",
"O. c #5B5843",
"+. c #5C5843",
"@. c #5B5844",
"#. c #5C5844",
"$. c #5D5A45",
"%. c #5F5B47",
"&. c #645E41",
"*. c #665F43",
"=. c #615B44",
"-. c #615C44",
";. c #645E44",
":. c #645E45",
">. c #655E45",
",. c #655E4A",
"<. c #676042",
"1. c #676043",
"2. c #646044",
"3. c #6A6346",
"4. c #6A6446",
"5. c #6B6447",
"6. c #66634F",
"7. c #696148",
"8. c #6A6248",
"9. c #6B6348",
"0. c #6B6249",
"q. c #68634B",
"w. c #69634B",
"e. c #696449",
"r. c #6B6448",
"t. c #6A644A",
"y. c #69644C",
"u. c #6C654D",
"i. c #6C674D",
"p. c #6D674D",
"a. c #6C674E",
"s. c #6F694F",
"d. c #726841",
"f. c #786D44",
"g. c #796E45",
"h. c #7A6E45",
"j. c #7D7247",
"k. c #7E744C",
"l. c #6B6850",
"z. c #6E6950",
"x. c #6E6951",
"c. c #6E6A50",
"v. c #6F6B51",
"b. c #6E6A52",
"n. c #6F6A52",
"m. c #706C50",
"M. c #706C51",
"N. c #716E53",
"B. c #726E53",
"V. c #736F53",
"C. c #716F54",
"Z. c #716F55",
"A. c #726E54",
"S. c #736E54",
"D. c #726F54",
"F. c #736F54",
"G. c #726F55",
"H. c #727055",
"J. c #737056",
"K. c #737157",
"L. c #747055",
"P. c #747157",
"I. c #7A7250",
"U. c #787257",
"Y. c #797357",
"T. c #7A7557",
"R. c #7F7554",
"E. c #7D7655",
"W. c #7E7655",
"Q. c #747158",
"!. c #797459",
"~. c #797559",
"^. c #7A7459",
"/. c #7A7559",
"(. c #7A7659",
"). c #7B765A",
"_. c #7A755C",
"`. c #7C7859",
"'. c #7C785F",
"]. c #81764A",
"[. c #807553",
"{. c #807657",
"}. c #857B57",
"|. c #827958",
" X c #837A58",
".X c #827A5A",
"XX c #847B58",
"oX c #827B5E",
"OX c #827C5D",
"+X c #837C5D",
"@X c #827C5E",
"#X c #837C5E",
"$X c #837D5E",
"%X c #827C5F",
"&X c #837D5F",
"*X c #847D5E",
"=X c #847D5F",
"-X c #847E60",
";X c #938B67",
":X c #938B68",
">X c #958E69",
",X c #948D6B",
"<X c #978F6B",
"1X c #918C6C",
"2X c #918C6D",
"3X c #948E6C",
"4X c #948F6F",
"5X c #96906C",
"6X c #97906D",
"7X c #97906E",
"8X c #98906D",
"9X c #98916D",
"0X c #99916D",
"qX c #98926D",
"wX c #99906E",
"eX c #98916E",
"rX c #98906F",
"tX c #99916F",
"yX c #99926E",
"uX c #99936E",
"iX c #98926F",
"pX c #99926F",
"aX c #9D956C",
"sX c #948E70",
"dX c #9A9270",
"fX c #9A9370",
"gX c #9B9371",
"hX c #9C9570",
"jX c #9C9572",
"kX c #9C9573",
"lX c #9D9773",
"zX c #9B9674",
"xX c #9D9674",
"cX c #9D9774",
"vX c #9C9775",
"bX c #9E9774",
"nX c #9E9873",
"mX c #9F9873",
"MX c #9D9874",
"NX c #A09872",
"BX c #A19B7A",
"VX c #A29C78",
"CX c #A39D79",
"ZX c #A59D78",
"AX c #A59E78",
"SX c #A59E79",
"DX c #A69E79",
"FX c #A69F79",
"GX c #A69F7A",
/* pixels */
"                        @X@X@X@X>X>X>X>XaXaXaXaXnXNXNXNXFXFXFXFXtXtXtXtX                                                                                                                                                                                                                                                                                                                                                                                                                                zXtXjXtXFXFXZXFXNXNXNXNXaXaXaXaX,X5X>X>X@X@X;X`.                        ",
"                        oX@XoX-X>X>X>X>XaXaXaXaXnXNXNXNXFXFXFXFXtXwX5XtX5X                                                                                                                                                                                                                                                                                                                                                                                                                            tXtXtXwXtXAXFXFXFXNXNXNXNXaXaXaXaX>X>X>X>X@X*XOX'.                        ",
"                  7.r.V.oX-XoX@X>X>X>X,XaXaXaXaXNXNXNXNXFXFXFXFXtXtXtXuXVXnXtX>X.X.X.X                                                                                                                                                                                                                                                                                                                                                                                                      .XXX>XtXMXCXjXjXNXjXFXFXFXFXNXNXNXNXaXaXaXaX>X>X>X>X*X*X@X*XP.7.                    ",
"                >.c._.T.oX@X@X@X>X>X>X,XaXaXaXaXNXNXNXNXFXAXAXAX0X0XtXtXuXnXjXzXzX2X3X3X,XE.[.{.                                                                                                                                                                                                                                                                                                                                                                                  E.E.,XtX5XsXBXzXnXnXjXtX0XtX0XAXAXZXZXNXNXNXNXaXaXaXaX>X>X>X>X*XOX@X@X`.'.c.<.                ",
"        O.O.O.O.W W W W ^ ^ ^ ^ j.f.f.j.].].].].j.j.j.j.j.j.j.j.d.d.d.d.h.f.f.f.h.h.h.h.k.k.k.k.I.I.I.I.U.U.U.U.(.!.(.!.H.N.H.H.                                                                                                                                                                                                                                                                                                                H.P.P.F.!.!.!.).U.U.U.U.I.I.I.I.k.k.k.k.h.h.h.h.f.f.f.f.^ d.d.d.j.j.j.j.j.j.j.j.].].].].f.j.f.h.^ ^ ^ ^ W W W W X.O.o.o.        ",
"        O...O.O.W W W W ^ ^ ^ ^ f.h.f.f.].].].].j.j.j.j.j.j.j.j.d.d.d.d.h.f.f.f.h.h.h.h.k.k.k.k.I.I.I.I.U.U.U.U.(.(.!.!.V.N.H.H.                                                                                                                                                                                                                                                                                                                P.N.N.F.!.).!.).U.U.U.U.I.I.I.I.k.k.k.k.h.h.h.h.f.f.f.f.d.d.d.d.j.j.j.j.j.j.j.j.].].].].f.f.h.h.^ ^ ^ ^ W W W W #.#.o...        ",
"        ........W W W W ^ ^ ^ ^ h.f.h.h.].].].].j.j.j.j.j.j.j.j.d.d.d.d.f.f.f.f.h.h.h.h.k.k.k.k.I.I.I.I.U.U.U.U.!.(.!.!.Q.Q.H.N.l.u.y.7.y.                                                                                                                                                                                                                                                                                              0.0.u.u.N.Q.Q.Q.!.).).E.U.U.U.U.I.I.I.I.k.k.k.k.h.h.h.h.f.f.f.f.d.d.d.d.j.j.j.j.j.j.j.j.].].].].f.f.h.h.^ ^ ^ ^ W W W W #.#.....        ",
"      K ......E W W W W ^ ^ ^ ^ f.h.h.h.].].].].j.j.j.j.j.j.j.j.d.d.d.d.f.f.f.f.h.h.h.h.k.k.k.k.I.I.I.I.U.U.U.U.~.~.!.!.M.N.N.H.c.c.b.c.6.c.c.y.>.-.,.                                                                                                                                                                                                                                                                      =.>.6.c.c.6.c.M.l.M.H.F.V.c.!.U.U.U.U.U.U.U.I.I.I.I.k.k.k.k.h.h.h.h.f.f.f.f.d.d.d.d.j.j.j.j.j.j.j.j.].].].k.f.j.h.h.^ ^ ^ ^ W W W W E ......        ",
"5 5 g k d d d d P P P P Y Y Y Y ! ! ! ! ~ ~ ~ ~ 4.4.4.4.1.1.1.1.<.<.<.<.5.5.5.5.R R Y T &.&.&.&.3.3.3.3.! ! ! ! 2.<.*.*.R R R R I I I I I I U U E E E E ../ ../ / / / / C H C D                                                                                                                                                                                                                 C C C C / / / / ../ ../ E E E E I I U U I I I I R R R R *.*.*.*.! R ! ! 3.3.3.3.*.~ &.&.T T T T 5.5.5.5.<.<.<.<.>.*.1.1.5.5.4.4.~ ~ ~ ~ ! ! ! ! Y Y Y Y P P P P s s s d g g g g ",
"5 5 r g d d d d P P P P Y Y Y Y ! ! ! ! ~ ~ ~ ~ 4.4.4.4.1.1.1.1.<.<.<.<.5.5.5.5.R R T T &.&.&.&.3.3.3.3.! T ! T <.2.*.*.R R R R I I I I I Y U U E E E E / ../ ../ / / / H H K K                                                                                                                                                                                                                 K H K H / / / / / ../ ..E E E E Y I U U I I I I R R R R *.*.*.*.! ! ! R 3.3.3.3.~ *.&.&.T T T T 5.5.5.5.<.<.<.<.*.*.1.1.5.5.4.4.~ ~ ~ ~ ! ! ! ! Y Y Y Y P P P P s s d d k g - g ",
"0 0 5 g d d s d P P P P Y Y Y Y ! ! ! ! ~ ~ ~ ~ 4.4.4.4.1.1.1.1.<.<.<.<.5.5.r.4.T T T T &.&.&.&.3.3.3.3.R ! ! ! >.*.*.*.R R R R I I I I I U U U E E E E ../ ../ / / / / H H C C a 0 k l L                                                                                                                                                                                               d s d < B B C C / / / / ../ ../ E E E E I I I Y I I I I R R R R *.*.*.*.! ! ! R 3.3.3.3.&.&.&.&.T T T T 5.5.4.5.<.<.*.<.1.1.1.1.4.4.4.4.~ ~ ~ ! ! ! ! ! Y Y Y Y P P P P d d d d r - 5 i ",
"0 = - g d d s s P P P P Y Y Y Y ! ! ! ! ~ ~ ~ ~ 4.4.5.5.1.1.*.*.<.<.<.<.5.r.4.4.T T T T &.&.&.&.3.3.3.3.R ! ! T <.*.*.*.R R R R I I I I U U U U E E E E / ../ ../ / / / C C C C < < > ; @ X @ ; 0 u n n                                                                                                                                                                   n u 5 # O . O ; ; < 0 c B C c / / / / / ../ ..E E E E E I I I I I I I R R R R *.*.*.*.R R ! ! 3.3.3.3.&.&.&.&.T T T T 5.5.4.4.<.<.*.^ 1.1.1.1.4.4.4.4.~ ~ ~ ! ! ! ! ! Y Y Y R P P P I d d d d 5 = = g "
};
