/* XPM */
static char *result[] = {
/* columns rows colors chars-per-pixel */
"24 24 35 1 ",
"  c #1C1414",
". c #280400",
"X c #340804",
"o c #28140C",
"O c #342C28",
"+ c #450C04",
"@ c #611404",
"# c #711808",
"$ c #755904",
"% c #4D4D2C",
"& c #615D38",
"* c #696541",
"= c #821C08",
"- c #8E200C",
"; c #BA2C10",
": c #CB3010",
"> c #DB3414",
", c #8E6D08",
"< c #967908",
"1 c #CB5D04",
"2 c #DB4118",
"3 c #DB4D1C",
"4 c #DF5D28",
"5 c #E77938",
"6 c #A28208",
"7 c #AE8E08",
"8 c #B29610",
"9 c #BEA210",
"0 c #CBAE10",
"q c #D7B614",
"w c #FFE318",
"e c #EB8641",
"r c #EF9249",
"t c #F3A251",
"y c None",
/* pixels */
"yyyyyyy;;yyyyyyyyyyyyyyy",
"yyyyy--+X;yyyyyyyyyyyyyy",
"yyyy-@+X.;-yyyyyyyyyyyyy",
"yyy-@+X.>:;-yyyyyyyyyyyy",
"yy-@+X.>32>;-yyyyyyyyyyy",
"y#@+X.>3542>;-yyyyyyyyyy",
"y#+X.>35t542>;-yyyyyyyyy",
"#+X;;:245t542>;-yyyyyyyy",
"+##-;;>245t542>;-yyyyyyy",
"y+##-;;>245t542>;-yyyyyy",
"yy+##-;;>245t542>;-yyyyy",
"yyy+##-;;>245r542>;-yyyy",
"yyyy+##-;;>245r542:;$yyy",
"yyyyy+##-;;>245r542:$&%y",
"yyyyyy+##-;;>245e549,$&%",
"yyyyyyy+#--;;>245e2w9,6%",
"yyyyyyyy+#--;;>2419qq9q$",
"yyyyyyyyy+#--;:>:768qw0,",
"yyyyyyyyyy+#-=;:6<<6808y",
"yyyyyyyyyyyo@-&,,<<<66,y",
"yyyyyyyyyyyy %&*$,<,<,yy",
"yyyyyyyyyyyyyO%&&$,,$yyy",
"yyyyyyyyyyyyy O%$,$$yyyy",
"yyyyyyyyyyyyyy O%$yyyyyy"
};
