/* XPM */
static char *result[] = {
/* columns rows colors chars-per-pixel */
"24 24 35 1 ",
"  c #1C1414",
". c #280400",
"X c #340804",
"o c #28140C",
"O c #342C28",
"+ c #450C04",
"@ c #611404",
"# c #711808",
"$ c #755904",
"% c #4D4D2C",
"& c #615D38",
"* c #696541",
"= c #821C08",
"- c #8E200C",
"; c #BA2C10",
": c #CB3010",
"> c #DB3414",
", c #8E6D08",
"< c #967908",
"1 c #CB5D04",
"2 c #DB4118",
"3 c #DB4D1C",
"4 c #DF5D28",
"5 c #E77938",
"6 c #A28208",
"7 c #AE8E08",
"8 c #B29610",
"9 c #BEA210",
"0 c #CBAE10",
"q c #D7B614",
"w c #FFE318",
"e c #EB8641",
"r c #EF9249",
"t c #F3A251",
"y c None",
/* pixels */
"yyyyyyyyyyyyyyy;;yyyyyyy",
"yyyyyyyyyyyyyy;X+--yyyyy",
"yyyyyyyyyyyyy-;.X+@-yyyy",
"yyyyyyyyyyyy-;:>.X+@-yyy",
"yyyyyyyyyyy-;>23>.X+@-yy",
"yyyyyyyyyy-;>2453>.X+@#y",
"yyyyyyyyy-;>245t53>.X+#y",
"yyyyyyyy-;>245t542:;;X+#",
"yyyyyyy-;>245t542>;;-##+",
"yyyyyy-;>245t542>;;-##+y",
"yyyyy-;>245t542>;;-##+yy",
"yyyy-;>245r542>;;-##+yyy",
"yyy$;:245r542>;;-##+yyyy",
"y%&$:245r542>;;-##+yyyyy",
"%&$,945e542>;;-##+yyyyyy",
"%6,9w2e542>;;--#+yyyyyyy",
"$q9qq9142>;;--#+yyyyyyyy",
",0wq867:>:;--#+yyyyyyyyy",
"y8086<<6:;=-#+yyyyyyyyyy",
"y,66<<<,,&-@oyyyyyyyyyyy",
"yy,<,<,$*&% yyyyyyyyyyyy",
"yyy$,,$&&%Oyyyyyyyyyyyyy",
"yyyy$$,$%O yyyyyyyyyyyyy",
"yyyyyy$%O yyyyyyyyyyyyyy"
};
