/* XPM */
static char *_c6ba4ff3afa482489eb6ead7853666976GY1ld4JB9gGAsP[] = {
/* columns rows colors chars-per-pixel */
"64 64 131 2 ",
"   c #060606",
".  c #080707",
"X  c #070806",
"o  c #080807",
"O  c #080708",
"+  c #070808",
"@  c #0C0C0B",
"#  c #100E0D",
"$  c #0F100F",
"%  c #11110E",
"&  c #100F10",
"*  c #151513",
"=  c #191714",
"-  c #171817",
";  c #191916",
":  c #171818",
">  c #1D1D1B",
",  c #201F1C",
"<  c #1E201E",
"1  c #21211E",
"2  c #1E2221",
"3  c #242523",
"4  c #282724",
"5  c #272926",
"6  c #292926",
"7  c #272928",
"8  c #2B2C2A",
"9  c #302F2F",
"0  c #2F302C",
"q  c #31312E",
"w  c #2E3131",
"e  c #343533",
"r  c #383733",
"t  c #373835",
"y  c #3A3A35",
"u  c #363A39",
"i  c #3C3D3A",
"p  c #403E3B",
"a  c #3F4037",
"s  c #3E413D",
"d  c #42423D",
"f  c #49423B",
"g  c #3F4240",
"h  c #434542",
"j  c #464945",
"k  c #4A4B46",
"l  c #464A49",
"z  c #4B4D4A",
"x  c #4E514D",
"c  c #51524D",
"v  c #56584F",
"b  c #4E5251",
"n  c #545553",
"m  c #565955",
"M  c #595A55",
"N  c #565A59",
"B  c #5B5C5B",
"V  c #5E615E",
"C  c #60625D",
"Z  c #5E6362",
"A  c #646464",
"S  c #646965",
"D  c #686966",
"F  c #656B69",
"G  c #6B6C6B",
"H  c #6E726E",
"J  c #71736E",
"K  c #6D7371",
"L  c #747474",
"P  c #737A76",
"I  c #797B76",
"U  c #757C7B",
"Y  c #7D7D7D",
"T  c #7E8077",
"R  c #77807F",
"E  c #7C817D",
"W  c #81847D",
"Q  c #7B8382",
"!  c #7F8887",
"~  c #828282",
"^  c #848A84",
"/  c #898C85",
"(  c #858D8A",
")  c #8B8C8C",
"_  c #86908E",
"`  c #8D938D",
"'  c #90968F",
"]  c #8B9491",
"[  c #939493",
"{  c #939A94",
"}  c #999F97",
"|  c #959E99",
" . c #9B9B9B",
".. c #96A09A",
"X. c #9CA39C",
"o. c #A1A79E",
"O. c #97A2A0",
"+. c #9CA5A1",
"@. c #9FA9A3",
"#. c #A2A4A2",
"$. c #A4ABA4",
"%. c #A8AFA7",
"&. c #A5AEA9",
"*. c #AAAEAA",
"=. c #A6B0A7",
"-. c #A9B1A7",
";. c #A6B1AB",
":. c #ABB3AC",
">. c #AFB8AE",
",. c #B1B5AE",
"<. c #B1B9AC",
"1. c #ACB6B1",
"2. c #AEBAB3",
"3. c #AFBAB9",
"4. c #B1B6B1",
"5. c #B1BBB5",
"6. c #B3BEB9",
"7. c #BEBEBE",
"8. c #B5C1BA",
"9. c #B9C4BD",
"0. c #BCC7C2",
"q. c #BEC9C4",
"w. c #C3C3C3",
"e. c #C1CBC6",
"r. c #C2CECA",
"t. c #CCCCCC",
"y. c #C6D1CD",
"u. c #C8D1CC",
"i. c #D2D2D2",
"p. c #DEDEDE",
"a. c gray90",
/* pixels */
"3 e h B V h h f k x n c n z c c M n x v M M m c n m M S I H D : U U U G M M M m n n n n N m m m N B B B B N B B B B V V B h q 4 ",
"1 8 8 r u 8 q q 0 e e e e 8 e q e q 4 8 e r e e r 0 e d h a y * j z l g e e e e e e 0 e y 0 e e e e e e r e e e e 0 r p i 4 9 1 ",
"3 8 4 3 5 8 8 0 8 e e 8 1 > ; > ; > 1 < > > > > 1 1 > ; - - ; ; ; ; * * - ; * = : * : > : : : : : : - 8 r i d i s p i 4 3 4 4 4 ",
"3 8 y i s h h j j l z j i t s h h d j k j k k l z z d h r y y y i i r r i p p p g g g s g h h g i g g l l z x n n c x p i r 9 , ",
"1 q a j j k j l x x n n n m v c v x c m v m v V B v v z c z M n M n c n b n n m b b n N N Z N b n N B m x x n n n b n j h s q , ",
"1 6 a j j d h l j z k k c c c c c x x c x k x v z z z k j x n x n x z x b b b x z b b b b N b b b B B n x x c n n z x h h p 8 , ",
"; 1 r i y y u y s s d d d h h h d s s d s s s d j d d d f d k h f k h h j j k z l h l g l l l h l l l h h h h h p p p i i e 4 = ",
"; 1 1 3 < 3 < > 3 3 5 3 5 3 4 3 5 3 3 3 < 5 5 1 5 3 3 4 3 4 6 3 8 8 8 8 8 9 e 8 w 8 7 8 8 8 7 5 5 7 7 7 5 5 0 5 4 4 3 , 3 3 , = ",
"- - - < < 2 < 5 < < < < * % $ $ @ @ % % @ $ $ $ = # # # * # * # % # * @ $ $ $ % $ @ $ * $ $ $ * $ $ % < 3 3 9 9 q 3 4 > = = > - ",
"< 2 a a s x s s s s d d e 4 q e q 9 q e 0 q 0 a e e e e e 9 r e 9 e r r e u w e t t u g g g g g i s u j k k c c x l k k i 9 5 , ",
"< 0 a s d v v z k j j k k d d k f z k k d f f d k k k k k k k c z z z c x x x z b b b b b N b b b b b x x k k c c k z k h p 8 1 ",
"< 5 s a s v v x x x x j x k f x k c k f f c k k k k k k k k k k c z x b x x x x b b b b b n b b n b n x x x c k c k z d p r 8 , ",
"< 5 a a a v x k x x k k k d v k k k k c c k k k k k k k z z z c c z z c z c x x x x b b b b b b b b z z c z c c z c z p p y 6 1 ",
"< 5 a a a v k x d k d k d v v d k k k k c k j k k k k k k z k k z z z z x z x x z z z b b b b b z b x z c z c k z k c p p y 6 > ",
"< 5 w e a a s s s a a s s a a s d d f f p p p f h f p p p h h g f h h h j h g s g g l l g g l l h h h g h h h h d d h p r e 8 , ",
"< 5 5 1 5 2 a 5 < a 5 5 0 5 0 0 8 q 4 4 9 6 9 9 9 9 9 e 8 9 9 8 e 8 8 8 8 8 6 8 8 0 8 5 2 w 7 7 3 5 7 8 6 6 8 6 q q q 4 3 3 3 1 ",
"< 1 # # # = % % = = $ % X X X       X X X X X X & & O O O O O O X o o o O @ . @ X + + + + + + + X X X = - = * - - - ; $ $ @ 1 1 ",
"1 1 q r f f c v f x d d y q a a u a a a r s d d l f i p i u e i d d d d k d i p g i g g g g g g g s s m m M c M M n n f r q 4 > ",
"1 5 r r d f f v f x k f d f d k h z k k k k m v n n z f h h h k x x z k m k c k z l b b b b b b b x x x x x x c x c k f d r 4 1 ",
"1 1 r d d v f c x c d f d d d f j d d k j k n n n z f n Z L G G D H D c x k l k j l g b b g g b x x z x c z x x x k k f y q 1 1 ",
"1 6 q r f c f v k k d d d d d d j h j j j k c c n B Y #.*. .[ ~ [  .*.#.~ n z z k l x l g b b b l z z x x z x x c k j f y q 4 1 ",
"1 6 q r d f k k k k d d d f d f f h h k j j z k L *. .~ [  . . .#. .[  .#.*.L b k k g x b b b b z l z z x l k x k k c p p q 4 1 ",
"1 6 a a a a a d f j d f d y d i p p p p d d x ~ *.) ) 4.t.t.i.i.i.i.t.7.#. .*.~ h g g x g g g g j l j j h h l j d k f p p p 4 1 ",
"1 1 1 < < 5 0 0 1 4 4 1 1 1 1 1 3 6 4 4 6 8 W #.~ #.w.t.t.t.i.t.t.t.t.w.t.4. .*.~ 8 7 w 7 w w w 8 8 5 5 5 3 5 5 5 6 4 , 1 1 1 1 ",
"1 1 1 1 5 5 5 0 5 8 5 2 % % @ @ @ @ @ . # A #.h L i.i.7.7.7.7.7.w.7.7.w.t.p. .B  .A & & & & + @ @ + $ 2 2 7 8 w e t u 3 3 3 5 > ",
"1 0 C / ' ............] H V M M n n n n G *.n h A *.p.t.i.t.t.w.w.t.i.i.a.w.~ A B #.L A Z Z Z Z N V K ..O.X.;.1.5.5.8.[ ^ V 5 3 ",
"1 e T X.=.>.>.-.-.8.>.>.o.o.o.o.| } } X. .L c L ~ ~ *.#. .#.#.#.#.#.*.4.4.~  .Y z L #.&.;.;.@.O.@.$.;.8.8.8.8.q.q.0.e.y.q.I r 3 ",
"1 a / X.X.-.-.-.:.:.>.-.-.<.<.:.*.*.:.$.[ B L ~ [ #.[ G L Y Y Y Y ~ #.*.#.[  .~ G z  .*.6.6.0.1.8.3.3.3.3.1.8.8.q.8.0.r.9./ r < ",
"1 r W o.o.-.-.<.-.-.-.=.-.<.:.-.-.*.-. .Y B ~ ) [ *.#.L ~ ~ ~ Y ~ ~ ) [ #.#. .) ~ n Y #.8.8.8.3.2.2.2.6.2.2.8.8.8.8.8.9.8.^ y 1 ",
"1 y W ..X.-.-.-.-.;.=.=.-.-.-.-.-.*.-.[ B n ~ )  .#. .Y ~ ~ ~ Y Y Y ~ ~ ) )  .) ~ n B  .8.8.1.1.2.6.6.3.8.3.8.3.3.8.8.8.8.E r 1 ",
"< q W ' ..X.o.o.=.o.X.X.{ ' ' ' [ [ ` / z h A L [ *. .~ Y Y Y Y Y Y ~ ~ ) )  .) A h z ) ......| ....+.;.;.1.1.2.1.1.<.;.o.T q 1 ",
"@ = f v C J H J H S V V q 1 5 5 6 5 5 L l l B G [ #.[ ~ ~ Y Y Y Y Y Y Y [ [ #.~ B l l U 5 5 7 5 7 5 e b F K P I U U U C v d ; % ",
"; < = = < 3 5 5 3 3 1 > % @ @ @ & & : L l l B G )  .[ ~ ~ Y Y Y Y Y Y ~ ) [  .Y B l l L & @ @ O @ @ & : 7 7 7 7 w 7 7 2 : : , : ",
"< 6 q r y d d d h i d h k h h h h l l L l g n A Y [ ) ~ ~ ~ Y Y Y Y Y ~ ) Y Y A N g z Y n n n N N b N N N Z N Z N N B u u e 4 , ",
"< 5 0 r r i i y d i i a d h p f g p p L b i l B G Y ~ ~ ~ Y Y Y Y Y ~ ~ ~ L A B l e n U z l l l b g g g b g g b b g l u r 9 7 , ",
"1 5 r d r d y a d d d d i d d d g g p G n 9 p z B A L Y ~ ~ Y ~ ~ ~ ~ Y Y G B n p e A G z h h h g b g b g g b b g b l g g r 7 > ",
"1 4 q y a y d a i d d a d d h j h h g N A 9 9 i z B L L Y ~ ~ ~ Y ~ ~ Y L A z p 9 e G B l l h h g g g g N g N g l k k i y 9 6 , ",
"1 3 q d y d y d i i a i p p j j p l p z G i : 9 p n G A G Y ~ Y Y Y L A A B p 9 3 i G z h h h h b g g g g g g g z k k i y e , 3 ",
"1 1 q i e y y a y y r i y p s h p p p p n n > 2 e n p p p l l l l l p p u p p 4 3 N N i g u g g g g g g g g g g l j d r y q 6 , ",
"; 1 1 4 0 0 0 q q q q 6 : @ @ * O & O & : B g > p 9 9 e i u i i i i i 9 7 9 p 3 p N * @ & & @ @ & : : 9 g g g g a t e q 5 3 > ; ",
"= = * * ; 3 5 5 8 8 8 3 : > > > > 1 > 2 > w N k 3 > 3 8 9 w e u 9 9 9 9 7 2 3 l B u : 2 > 2 3 7 7 7 7 8 8 w w 3 3 8 8 > * * : * ",
"- 3 i m S H P P E E E K K P K P U Y P Y U U A n u , > 2 7 7 7 8 9 7 7 7 2 : 9 b G ~ U U R ( _ ] ! ] ( ! Q _ _ Q Q ( ^ S b i 3 : ",
"; q I X.>.5.2.5.1.<.>.1.1.6.9.0.w.r.r.w.0.0.q.[ m l e 5 > > 3 3 2 3 > 2 w i b  .y.q.w.w.q.y.y.y.y.q.0.0.q.0.e.u.r.y.u.8.@.I 8 > ",
"< 0 I { ..o.$.$.X.X.@.X.@.%.*.*.&.*.&.1.*.1.1.3.+.D x l i e 9 9 9 9 9 l b L O.3.3.3.;.;.;.;.1.3.3.3.&.;.;.>.1.4.1.5.<.1.*.I q > ",
"< r W { ..o.o.$.X.o.X.o.o.$.-.;.-.*.;.-.-.4.*.4.:.;.' I A m z l b n A Y [ *.*.*.3.&.&.&.&.&.;.1.3.;.;.@.&.&.,.1.1.:.:.>.-.W y > ",
"< e I ' X.o.o.o.o.o.o.o.X.@.$.X.:.-.,.-.1.:.*.*.;.=.;.;.&.&.*.1.*.*.*.*.*.*.*.*.1.*.&.&.&.&.1.1.1.;.@.;.$.&.:.1.<.,.:.>.,.I e > ",
"< q T ` { X...X.......[ ^ ^ ` ` ` [ ` ^ ^ ( ( ] ] ] [ { [ [ ] _ ) ) ) ) ] ] ] [ _ ] ) ) _ ( ) ] ] _ ] O.+.@.$.-.%.$.$.$.%.I q > ",
"> 4 M J T W W W ^ E T F a e s d h h r 8 9 e i s h h k h h h s i p i u g g g l g h h g g g g g h s u l U ^ ( ) ^ ^ ~ ^ / E M 8 > ",
"> 1 0 r d j k k j s u 1 $ o     o X o   . . + + + o + @ O O + O O O O + O O + * O O O O O O +   + + $ e g j g s s s d h u 6 5 > ",
"> 1 > < 1 4 6 5 3 5 3 3 5 6 3 4 8 5 4 8 8 8 8 w 7 8 8 w w q e 9 8 7 8 9 9 9 8 8 9 8 7 8 8 7 8 8 0 8 7 8 8 0 w 0 7 7 6 < < > 1 > ",
"< 5 q q a d d d a s a s h h d h k k k j j h h j l z h z b l b x h h l g h l z z l l g g g g l l l g g l l k l k l k k t q q 5 > ",
"< 4 r y a d d a d s s a d i d k k d d j h h h h h h h h k k z k l h g g h h h h g g g i g h h h h l l l l g l j h l z t r e 5 > ",
"= 4 q d e f s d d d d i d s h j j d j d h h h j h h h h j k l h h g i h g h h h h i i i u h g g h l j l h h l l k k k y r q 4 1 ",
"; 3 q q r f f a d f d d d y d h l k d j s d h h h h h h k l j h g g p h h h h h h i s i s i e u s l h h j s g l j k k r i q 1 = ",
"; 4 0 q r d f d a a d d d i d i y y y r y y d d h h h k k l j d i g p h h s h s s i u u e e e u d j d d s s g s d d f i q q 1 1 ",
"; 1 4 0 q y r d a a r r 6 > > > ; ; < ; < < 3 3 5 3 5 6 8 5 1 1 > > 3 8 3 2 2 3 1 1 > : > > 2 2 3 < 5 e s u s e t t e 0 0 4 1 = ",
"* > ; ; = < < 1 2 2 1 ; $ X o X X X X X X X o o @ O O & @ O o o O @ & @ O O @ O + O O + O O . . @ + @ 2 5 3 < < < < > ; ; ; > - ",
"; > ; ; % < = = * - ; % ; - - > 1 1 > 1 1 1 1 > : * : * : : : : > : > > > 2 2 > 2 > > : : > > > < 2 2 2 < 3 3 3 2 < 3 - ; - > ; ",
"; 3 q y y d d f j k d k k k j k z z z z k k k k z z b z b b z l g h l l z b l l l h s h h l l b l z l h l l l b b x b u y e 3 - ",
"; 3 r y y d r a d d d d d d d d k d j h k j f k h l l l l h l h g g s h h g l g s h i i u i h h s h s i i g g h l h g u y r 4 - ",
"* 1 e r r r f d d s f f d d d d f d d a d k h h h h h h h h l g h s g h g g g g i i u u r i h h h g g g g s g g h h d e e r 3 = ",
"* 1 8 0 0 a r a a a a f d d d a y y a y d h h i g h d i i i g g i i i p g g i u y e e w e e h h g g g u t i i i i d p 9 8 8 1 $ ",
"@ * 1 < 1 1 6 1 1 4 5 4 0 1 1 1 1 1 1 1 1 3 1 3 5 8 6 5 4 6 4 8 7 3 4 4 4 3 3 2 , , > 5 < 3 5 5 2 3 2 < < 1 1 1 3 3 4 1 1 < * @ ",
"% * * - < % = * = ; = ; ; = ; ; = = = ; % * * * # @ - - = = ,   * : = * & = ; # & & & * & # * * # * = = * * * * * - % > - - * @ "
};
