/* XPM */
static char *result[] = {
/* columns rows colors chars-per-pixel */
"94 183 61 1 ",
"  c black",
". c #070707",
"X c #170F07",
"o c #0B1707",
"O c #131313",
"+ c #1B1B1B",
"@ c #13230B",
"# c #2B230F",
"$ c #3F2F17",
"% c #232323",
"& c #2F2F2F",
"* c #373737",
"= c #43331B",
"- c #4B371B",
"; c #5F4323",
": c #53573B",
"> c #6B4727",
", c #774F2B",
"< c #7F532F",
"1 c #675333",
"2 c #775F3F",
"3 c #434343",
"4 c gray28",
"5 c #4B4B4B",
"6 c gray34",
"7 c gray39",
"8 c gray42",
"9 c #777777",
"0 c gray50",
"q c #875733",
"w c #9B633B",
"e c #A36B3F",
"r c #836B4B",
"t c #8F7753",
"y c #AB6F43",
"u c #BF7B4B",
"i c #9B7F6B",
"p c #CB7F4F",
"a c #9F8363",
"s c #A78F77",
"d c #D78B5B",
"f c #DF9363",
"g c #E79B6B",
"h c #EFA373",
"j c #F7AB7B",
"k c #8B8B8B",
"l c #939393",
"z c #9F9F9F",
"x c #B79F87",
"c c #BFA78F",
"v c #A7A7A7",
"b c gray70",
"n c gray75",
"m c #FFB383",
"M c #FFBB93",
"N c #FFC7A7",
"B c #FFCFB3",
"V c LightGray",
"C c #E7E7E7",
"Z c #EFEFEF",
"A c None",
/* pixels */
"AAAAAAAAAAAAAAAAAAAAAAAA%*+o  +*AAAAAAAAAAAAAAAAAAAAAAAAAAAAAAAAAAAAAAAAAAAAAAAAAAAAAAAAAAAAAA",
"AAAAAAAAAAAAAAAAAAAAAA3XXXXXXXXXX*AAAAAAAAAAAAAAAAAAAAAAAAAAAAAAAAAAAAAAAAAAAAAAAAAAAAAAAAAAAA",
"AAAAAAAAAAAAAAAAAAAAA%+XXXXX+%*3&+*AAAAAAAAAAAAAAAAAAAAAAAAAAAAAAAAAAAAAAAAAAAAAAAAAAAAAAAAAAA",
"AAAAAAAAAAAAAAAAAAAA%++XXXXXXX+%*033AAAAAAAAAAAAAAAAAAAAAAAAAAAAAAAAAAAAAAAAAAAAAAAAAAAAAAAAAA",
"AAAAAAAAAAAAAAAAAAAA++XXXXXXXXXX%307AAAAAAAAAAAAAAAAAAAAAAAAAAAAAAAAAAAAAAAAAAAAAAAAAAAAAAAAAA",
"AAAAAAAAAAAAAAAAAAA%++++++XXXXXXX+%53AAAAAAAAAAAAAAAAAAAAAAAAAAAAAAAAAAAAAAAAAAAAAAAAAAAAAAAAA",
"AAAAAAAAAAAAAAAAAAA+#++oX300*oo oX+&*AAAAAAAAAAAAAAAAAAAAAAAAAAAAAAAAAAAAAAAAAAAAAAAAAAAAAAAAA",
"AAAAAAAAAAAAAAA%%%%X%XXXXXXXXXX%&%%%%AAAAAAAAAAAAAAAAAAAAAAAAAAAAAAAAAAAAAAAAAAAAAAAAAAAAAAAAA",
"AAAAAAAAAAAAAAA+XXXX*%XXXXXXXXXX+3*&&AAAAAAAAAAAAAAAAAAAAAAAAAAAAAAAAAAAAAAAAAAAAAAAAAAAAAAAAA",
"AAAAAAAAAAAAAAA++XXX*%XXXXXXXXXX+l3**+AAAAAAAAAAAAAAAAAAAAAAAAAAAAAAAAAAAAAAAAAAAAAAAAAAAAAAAA",
"AAAAAAAAAAAAAAAAA+XX%+++++++XXXX#8363%AAAAAAAAAAAAAAAAAAAAAAAAAAAAAAAAAAAAAAAAAAAAAAAAAAAAAAAA",
"AAAAAAAAAAAAAAAAAA++++ XXXXXX  XX*666*AAAAAAAAAAAAAAAAAAAAAAAAAAAAAAAAAAAAAAAAAAAAAAAAAAAAAAAA",
"AAAAAAAAAAAAAAAAAA%+++XXXXXXoo   %&76*+&+35AAAAAAAAAAAAAAAAAAAAAAAAAAAAAAAAAAAAAAAAAAAAAAAAAAA",
"AAAAAAAAAAAAAAAAAA%+X+XXXXXXXXXX X+37* oo+%+3AAAAAAAAAAAAAAAAAAAAAAAAAAAAAAAAAAAAAAAAAAAAAAAAA",
"AAAAAAAAAAAAAAAAAAA+X+XXXXXXXXXXoX++3* XX+%++&AAAAAAAAAAAAAAAAAAAAAAAAAAAAAAAAAAAAAAAAAAAAAAAA",
"AAAAAAAAAAAAAAAAAAA+X+XXXXXXXXXXX++%%%o+++%&&+3AAAAAAAAAAAAAAAAAAAAAAAAAAAAAAAAAAAAAAAAAAAAAAA",
"AAAAAAAAAAAAAAAAAAA+X+XXXXXXXXXX#&+%o o+++%&&*&7AAAAAAAAAAAAAAAAAAAAAAAAAAAAAAAAAAAAAAAAAAAAAA",
"AAAAAAAAAAAAAAAAAAA+X+XXXXXXXXXX#*&%  XXXX%&&**3AAAAAAAAAAAAAAAAAAAAAAAAAAAAAAAAAAAAAAAAAAAAAA",
"AAAAAAAAAAAAAAAAAAA+X+XXXXXXXXXXX*3% OOXXXO++&3*8AAAAAAAAAAAAAAAAAAAAAAAAAAAAAAAAAAAAAAAAAAAAA",
"AAAAAAAAAAAAAAAAAAA+X+XXXXXXXXXXX*3%   XXXX++++33AAAAAAAAAAAAAAAAAAAAAAAAAAAAAAAAAAAAAAAAAAAAA",
"AAAAAAAAAAAAAAAAAAA+X+XXXXXXXXXX+*5%  XXXXX++*++3AAAAAAAAAAAAAAAAAAAAAAAAAAAAAAAAAAAAAAAAAAAAA",
"AAAAAAAAAAAAAAAAAAA+X+XXXXXXXXXX+*5%  oXXXX++3* +AAAAAAAAAAAAAAAAAAAAAAAAAAAAAAAAAAAAAAAAAAAAA",
"AAAAAAAAAAAAAAAAAA+X++XXXXXXXXXXX*5% XoXXXX+#36+XAAAAAAAAAAAAAAAAAAAAAAAAAAAAAAAAAAAAAAAAAAAAA",
"AAAAAAAAAAAAAAAAAA+X++XXXooXXXXX+*5% XoXXXX++*83+AAAAAAAAAAAAAAAAAAAAAAAAAAAAAAAAAAAAAAAAAAAAA",
"AAAAAAAAAAAAAAAAAA+X++XXXXXXXXXX+*5&  oXXXX++*97AAAAAAAAAAAAAAAAAAAAAAAAAAAAAAAAAAAAAAAAAAAAAA",
"AAAAAAAAAAAAAAAAAA+X++XXXXXXXXXXX*6* XoXXXX++&k8AAAAAAAAAAAAAAAAAAAAAAAAAAAAAAAAAAAAAAAAAAAAAA",
"AAAAAAAAAAAAAAAAAA+X++XXoXXoXXXX+*6* XoXXXX++&00AAAAAAAAAAAAAAAAAAAAAAAAAAAAAAAAAAAAAAAAAAAAAA",
"AAAAAAAAAAAAAAAAAA+X++XXXXXXXXXX+*6*  oXXXX++&80AAAAAAAAAAAAAAAAAAAAAAAAAAAAAAAAAAAAAAAAAAAAAA",
"AAAAAAAAAAAAAAAAAA+X+XXoooooooXX#*6*  XXXXX++&79AAAAAAAAAAAAAAAAAAAAAAAAAAAAAAAAAAAAAAAAAAAAAA",
"AAAAAAAAAAAAAAAAAA+X+XXXooooXXXXX*6*  oXXXX++&36AAAAAAAAAAAAAAAAAAAAAAAAAAAAAAAAAAAAAAAAAAAAAA",
"AAAAAAAAAAAAAAAAAA+X+XXXXooXXXXX#*6*  oXXXX++&33AAAAAAAAAAAAAAAAAAAAAAAAAAAAAAAAAAAAAAAAAAAAAA",
"AAAAAAAAAAAAAAAAA*+++XXXXooXXXXXX*6* $--=$$++%*3AAAAAAAAAAAAAAAAAAAAAAAAAAAAAAAAAAAAAAAAAAAAAA",
"AAAAAAAAAAAAAAAAA%+++XXXoXXoXXXXX*6*X$$==$,$++&*AAAAAAAAAAAAAAAAAAAAAAAAAAAAAAAAAAAAAAAAAAAAAA",
"AAAAAAAAAAAAAAAAA++++XXXoXXoXXXX%*6*X####$,d,+%&AAAAAAAAAAAAAAAAAAAAAAAAAAAAAAAAAAAAAAAAAAAAAA",
"AAAAAAAAAAAAAAAAA++++XXXoXXoXXXX%*6*X####$,fmu-&AAAAAAAAAAAAAAAAAAAAAAAAAAAAAAAAAAAAAAAAAAAAAA",
"AAAAAAAAAAAAAAAAA++++XXXooooXXXX+36*X####$,fmmd>AAAAAAAAAAAAAAAAAAAAAAAAAAAAAAAAAAAAAAAAAAAAAA",
"AAAAAAAAAAAAAAAAA++++XXXoXXoXXXX+36*X#####,fmmf<X=<,,,,,,,<<,AAAAAAAAAAAAAAAAAAAAAAAAAAAAAAAAA",
"AAAAAAAAAAAAAAAAA+X++XXXXXXXXXXX%36*X#####,fmmf> $-;;;;-=$$$>qwwwAAAAAAAAAAAAAAAAAAAAAAAAAAAAA",
"AAAAAAAAAAAAAAAAA+X++XXXXXXXXXXX%*6*X#####,fmhf- #$=====$$$#$>qqwwyAAAAAAAAAAAAAAAAAAAAAAAAAAA",
"AAAAAAAAAAAAAAAAA+X++XXXoXXoXXXX%*6&X#####-ypppo #X##########$>q,,wyAAAAAAAAAAAAAAAAAAAAAAAAAA",
"AAAAAAAAAAAAAAAAA+X++XXXoXXoXXXX%*6&X######oooXooXX###########=,;==,wyAAAAAAAAAAAAAAAAAAAAAAAA",
"AAAAAAAAAAAAAAAAA+X++XXXoXXoXXXX%*5&X######XXXXoooXX######$$==-$$##$;;qqAAAAAAAAAAAAAAAAAAAAAA",
"AAAAAAAAAAAAAAAAA+X++XXXoXXoXXXX%*3&X######XXXXoXXXXX###$=---=##XXXXX$;>AAAAAAAAAAAAAAAAAAAAAA",
"AAAAAAAAAAAAAAAAA+X++XXXXXXXXXXX%**&X######XXo#=>wwwwwyyyyyeew<>-XXXXX#$-AAAAAAAAAAAAAAAAAAAAA",
"AAAAAAAAAAAAAAAA3++++XXXXXXXXXXX+**%X######XoX=ewwqqwyewqqwepggde-#XXXXo#AAAAAAAAAAAAAAAAAAAAA",
"AAAAAAAAAAAAAAAA*++++XXXXXXXXXXXX&&+X######Xo=ew<>>,wewq<<qwepggdyq$XXXo#AAAAAAAAAAAAAAAAAAAAA",
"AAAAAAAAAAAAAAAA+++++XXXXXXXXXXXo@+XX######XX=,=$$$=->>>>>>>qeppgppyw$#o#AAAAAAAAAAAAAAAAAAAAA",
"AAAAAAAAAAAAAAAA+++++XXXoXXoXXXXooooX######XX#=$$$========-;>qeepppppfw##AAAAAAAAAAAAAAAAAAAAA",
"AAAAAAAAAAAAAAAA+++++XXXXXXXXXXXooooXo#####XXX###########$$$;;,,,<weepffwAAAAAAAAAAAAAAAAAAAAA",
"AAAAAAAAAAAAAAAA+++++XXXoXXoXXXXooooXo##$##XXXXXXXX##########$$$$$=,,qypfuAAAAAAAAAAAAAAAAAAAA",
"AAAAAAAAAAAAAAAA+X+++XXoXXXXoXXXooooXo##$##XooXXXX##;>,,wyew,#o###$==,qyudfuAAAAAAAAAAAAAAAAAA",
"AAAAAAAAAAAAAAAA+X+++XXXoXXoXXXXXXooXo#$$##XooooX#;,<weyydfdpu#oXX#$$$;,qyudfuAAAAAAAAAAAAAAAA",
"AAAAAAAAAAAAAAAA+X+++XXoXXXXoXXX++ooXo#$$##Xoo o#-<,>,eyqudppuy>oXX####$$;qyudfuAAAAAAAAAAAAAA",
"AAAAAAAAAAAAAAAA+X+++XXooXXooXXXX+ooXo#$$###Xo o=<,--,,,-><wepphw=XX#####$=,qyudfuAAAAAAAAAAAA",
"AAAAAAAAAAAAAAAA+X+++XXoXXXXoXXXX#ooXo#$$###Xo ##,-$$$$$$$=><wpfhjw#XXX###$;,qyuudfuAAAAAAAAAA",
"AAAAAAAAAAAAAAAA+X++XXXXXXXXXXXXoooXXo#$$###XooX###########$=><wfhjfyq-XXX#$$;,qyuuqAAAAAAAAAA",
"AAAAAAAAAAAAAAAA+X+++XXXXXXXXXXXoooXoo#$$###XooX+#XXXXXXX###$=-;,wypdgdeq>=###==,qq;=AAAAAAAAA",
"AAAAAAAAAAAAAAA*++++XXXXXXXXXoXXXooXXo#$$###XooXXXXXXXXXXX###$$$$;,,wuuuppyywq,;====-;AAAAAAAA",
"AAAAAAAAAAAAAAA&+++++XooXXXXooXXXooXXo##$###XXoooo$=-><www,=##$$$$$;,<qwwepppppfgfduq,AAAAAAAA",
"AAAAAAAAAAAAAAA+++++XXOoXXXXoXXXX oXXoX##XXXXoX o->,<<<eppuye<=X#$$$$=-;,qeyppyeypfffduAAAAAAA",
"AAAAAAAAAAAAAAA+++++XXXoOOOOOXXXX oXXooXXXXXXoo o>;--><euyyuppe<=####$$$=>,<wwq,,qwpfppfgAAAAA",
"AAAAAAAAAAAAAAA++++++XXoXXXXoXXXXooXXooXXXXXXoo o-=====><wwyuuddpe<=####$==;,qq,;=-,weypfdpAAA",
"AAAAAAAAAAAAAAA++++++XXXXXXXXXXXX oXXoX#####Xoooo#$$$$$$$=><wwyuuddpe,=####=;,,,;==-;,qepfdpAA",
"AAAAAAAAAAAAAAA+++++XXooXXXXooXXX oXXX##$$$##Xoooo#######$$=-><wwyuuddpe-###$=====$$=-;>,,qq=A",
"AAAAAAAAAAAAAAA+X+++XXooXXXXooXXXo XXo$#$$$##XXoXXXXXXXXXX###$=-><wwyyddpe,=######$$$$$===$##A",
"AAAAAAAAAAAAAAA+X+++XoXoXXXXoXoXXooXXo$#$$$##XXoXXXXXXXXXXX#$$$===;,,wyuupddue<>=--########XoA",
"AAAAAAAAAAAAAAA+X++++XooXXXXooXXXooXXo##$$$##XooooXXXXoX####$$$$===;;;,<qweweypfggpwq,;####ooA",
"AAAAAAAAAAAAAAA+X+++XXXoXXXXoXXXXooXXoX####XXXXXXo oooooooooo#$$$=====><qq<qwwwwypfgggjpe;#ooA",
"AAAAAAAAAAAAAAA+X+++XXooXXXXooXXX  XXoXX####XXXoXXoooooooXoooooo##$$$$=>,<qq<,,,qqyypfggghp-oA",
"AAAAAAAAAAAAAAA+X++++XooXXXXooXXXo XXXo##$###XXXXXXXoooooooooooooooo#$$=->,,,,>>>,qqeyypfhhp>A",
"AAAAAAAAAAAAAAA+X+++XooooXXooooXXoooXoo#$$$###XXXoXoo  oooooXoooooooooooo###$==--;;,qqqqweppqA",
"AAAAAAAAAAAAAAA+X+++XoooXXXXoooXXXooXoo#$$$####XXXXoX    oooooooooooXXXXXXXX#$=--==;>,,,,,,,;$",
"AAAAAAAAAAAAAA*+++++X oXXXXXXoXoXXooXoo#$$$##$##XXXXXXo     ooooooooXXooXXo##$=-$$=--;>,,>;;=$",
"AAAAAAAAAAAAAA*++++OX XXXXXXXXoXoooXXoo#$$$#o1y>ooXXXXXo      oooooXooXXooo#$--$$$====-;>>-$#X",
"AAAAAAAAAAAAAA&+++++X XoXXXXoXXoXXoXXoo#$$$#oaga-##XXXXXX      oooooooooooooooo##$$$$$$;;-$$# ",
"AAAAAAAAAAAAAA+++++OX XXXXXXXXXX%&+XXoo#$$$# sBct>=#XXXXXXo        oooooooooooo#######$--$#$# ",
"AAAAAAAAAAAAAA+++++OX oXXooXXoo 37*oXoo#$$$# sBMfwq=#XXXXXXo          ooooooooXXXXoXX#$$#+X$# ",
"AAAAAAAAAAAAAA+X++++X ooXXXXoo o8v6 ooo$$$$# iBNgepq=XXXXXXXo           o oooooooooXX##++Xo$#o",
"AAAAAAAAAAAAAA+X+++OX XoXXXXoX okZ0 ooo$$$$# aBNgefh<$XXXXXoXoo         o oooooooooXXXXXoo$$#o",
"AAAAAAAAAAAAAA+X++++X XXXXXXXX  vZl  oo$$$$# aBNgeghe>$#XXXXooXX            ooooooooooXX##$##o",
"AAAAAAAAAAAAAA+X++++X oXoXXoXo  vZv* oo$$=$#otBNgeghuq;###XXXXXXo             oooooooo###$$#+X",
"AAAAAAAAAAAAAA+X+++OX XXoXXoXX  lZZ6 oo$==$# rBNgeghuwq>###XXXXXo                o oooXXX$$#XX",
"AAAAAAAAAAAAAA+X+++OX oXXXXXXo  0ZZ8 oo$=-$# 2mMgeghuwq,;$##XXXXX             o ooooX###$$$#XX",
"AAAAAAAAAAAAAA+X++++X oXXooXXo  0ZZ8 oo==-$#o1gMgeghuwq<,>;$#XXXXo            ##oooo#$$==-$# %",
"AAAAAAAAAAAAAA+X+++OX XXXXXXXX  0ZZ8 oo=--=#o>ujgeghuwq<<,,;$##XXo           o$#ooooXX##$$$# %",
"AAAAAAAAAAAAA++++++OX XXXXXXXX  0ZZ8%oo=---##>qhfufhuwqq<<,,-$##XX           ##oooooXXXX#$$# *",
"AAAAAAAAAAAAA+++++++X XXXXXXXX  0ZZ8%oo-;,>;;->yupdhuwqq<<,,>-$##X          # ooooXX###$==$# *",
"AAAAAAAAAAAAA+++++++X XXXXXXXX  0ZZ8%oo=$#ooXX o-wuduwq<<<,,>;$$#X   o    oooooo##$$$$-;;-## 3",
"AAAAAAAAAAAAA++++++XX XXXXXXXX  0ZZ8*oo#o    oo  $<dywq<<<,,>;$$$$o    ooXXXXXXXooXX###$-;#+ A",
"AAAAAAAAAAAAA++++++XX XXXooXXX  0ZZ93oo o  oo##o  X-2qq<<<,,>;$$=$X   oooXX####XXXoXXX##$-#X A",
"AAAAAAAAAAAAA+++++++X XXoXXoXX  0ZZ95oo        ooo  $>q<<<,,>;$$=-#  ooooXX#$$$###XXXXoX#$#X A",
"AAAAAAAAAAAAA+++%+++X XooXXooX o0ZZ96ooo        oo#o #-><<,,>;$$=-#  oooXX#$$$$$$####XXoX##XXA",
"AAAAAAAAAAAAA+++++++X oXXXXXXo X0ZZ97ooo          o#o o#>>,,>;$$=-#   oooX######$$$$$##XoX#XXA",
"AAAAAAAAAAAAA+++%++XX  XXXXXX   0ZZ07ooo           o##o o$;,>;$$=-#o  oooooooooo##$$$$##XooXXA",
"AAAAAAAAAAAAA+++++++X  XXXXXX   0ZZ07oo  o o        oo#o  #->;$$=-#o  ooooooXooooo#$$$$$##X  A",
"AAAAAAAAAAAAA+++%+++X XXXXXXXX  0ZZ07o                ooo  #=;$$=-$X ooooooooo###oo$==$$$$#  A",
"AAAAAAAAAAAAA+++%++XX XXXXXXXX  0ZZ07oo                 ooo o#$$=-$X  ooooo###$$$$#o$-;;-=$ oA",
"AAAAAAAAAAAA++X+%+++  XXXXXXXX  0ZZ07oo                   oo o#$=-;#  ooo##$$$$$$$$$##--;;= #A",
"AAAAAAAAAAAA+XX+++++  XXXXXXXX  0ZZ07oo                    oo  X#-;#o ooooo#####+$$$$$#=--$ *A",
"AAAAAAAAAAAA+XX+%+++ XXXXooXXXX 9ZZ07o %%o+                 oo  o#=#o ooooooo##$###X$=$#==$ AA",
"AAAAAAAAAAAA+XX+++++ XXo    oXX 8ZZk7o%8z6%+oXoo              o  o##ooooooo##$$$$$$#X$-=$$#oAA",
"AAAAAAAAAAAA+XX+%++X XX      XX 8ZZk7o+5Zv&%+ooooo                oXooooo##$$$$$$$$$#X$-=# %AA",
"AAAAAAAAAAAA+XX++++X XXooooooXX 7ZZk7o +33*&%+ooooo                o####$$$$$$====$$##X$-# AAA",
"AAAAAAAAAAAA+XX+++++ XXXXXXXXXX 3nZl7o o+***&%+ooXoo               o#$$$$$$$===--=$$$#XX=$%AAA",
"AAAAAAAAAAAA+XX++++X XXXXXXXXXX ozVl7o oX&&&%#++ooXXo              o#$$$$$===-;;-=$$$#XX$$AAAA",
"AAAAAAAAAAAA+XX+++++ XXXXXXXXXX  8v08o+oX+&&%+#++oooXo             X#$$$===-;;;-=$$$$$#Xo$AAAA",
"AAAAAAAAAAAA+XX+++++XXXXOOOOOXXo &676o+ X+&&%++##+XXXXo            #$$$==-;;>;-==$$$$$#Xo$AAAA",
"AAAAAAAAAAAA+XX+++&+++O++OXXoXXXoO*33&%+X#*&+++++++X+XX           o#$$$=-;>>;-=====$##XXo$AAAA",
"AAAAAAAAAAAA+X+&&*++++X%X+%X XXXXO%***&+#&*%++++++++#++ .         X$$$=-;>>>-=$$$$$$#XXXo$AAAA",
"AAAAAAAAAAAA++*3%+++++&&XX++ XXXXO+&&++&3*&+++++%++++##+         o#$$$==----==$$$$#$$XXooAAAAA",
"AAAAAAAAAAA&**%+X++%++&&+XX%XXXXXO+&&%++%&++++%+%+++%++#+        X$$$$=======$$$$##X$#XoXAAAAA",
"AAAAAAAAAAA*&++XX++%++X++X+5XXXXXO+%*%++++%++++++%X+++++++O     o#$$$$$$$$$$$$$$##XX##ooAAAAAA",
"AAAAAAAAAA&&++XXX++&++XXX bZ3+XXXO+&5*++%++%+++%++++%+++#++O   o###$$$$$$$$$$$$##XXXX#o#AAAAAA",
"AAAAAAAAAA&++XXoo++&++X        XXX++*3&%++++%+++++%%++++%#++OXXXXX####$$$$$$$##XXXXXX#XAAAAAAA",
"AAAAAAAAAA*+XXXXo++*%+X        XXOOO+&&+%%%+++%+++++%%++++#+++XXXXXXX########XXXXXXXo  AAAAAAA",
"AAAAAAAAAA&+XXXXX++3&+o          OO++%+%++++%++%%++%++%+++#++++XXXXXXXXXXXXXXXXXXXXo + AAAAAAA",
"AAAAAAAAAA+XXXX X++3*+o      ....OO+O++%%+++++++%+%+%++%%++#++++XXXXXXXXXXXXXXXXXoo ++AAAAAAAA",
"AAAAAAAAA&%XXXX X++3*+o      ....OO+O++%++++%%%++++%++++%++%++#%+XXXXXXXXXXXXXXoXX #AAAAAAAAAA",
"AAAAAAAAA*+XXXX X+&7*%o      ....OO+O+%+++%+++++%+++%%%++%+++++&%+#XXXXXXXXXXXXXo XAAAAAAAAAAA",
"AAAAAAAAA*X#XXXXX+&b3%o      ....OO+O+%+%+++%+++%+%+++++%+++%++%&+###XXXXXXXXXoo XAAAAAAAAAAAA",
"AAAAAAAAA&XXXX  X++3&&o      ....OO+O+&+++++%++%++++%+++%+%++++%+#####XXoXXXooo XAAAAAAAAAAAAA",
"AAAAAAAAA+XXXX O+&&6**&      ....OO+++&+++%++%+X++++%++%+++%+%+X&+++###XXXXXXo XAAAAAAAAAAAAAA",
"AAAAAAAAAXXXX.O&%%*0**0      ....OO++%&+++X++X++++%++%+X+%%+++++&+++++##XXXXo oAAAAAAAAAAAAAAA",
"AAAAAAAAAXXXO&+++%3n3&Z      ....OO++%&++O++%%%+++X++X++++++%+%+++++X++++XXX oAAAAAAAAAAAAAAAA",
"AAAAAAAAAXO&+O+XX+6C5&Z      ....OO++%&++++O+++++O++%%%++%%+++++%++O+%%++#Xo AAAAAAAAAAAAAAAAA",
"AAAAAAAAA&+O. XXX+7Z3&Z      ...X+XXX  X#OOO+++%+++O+++++X++%+%%++++%++++X#X AAAAAAAAAAAAAAAAA",
"AAAAAAAAAXXX  XXX+7V3*Z      ...%X       OOOO+X+++++O++%++%++ +X++O++++%++++XXAAAAAAAAAAAAAAAA",
"AAAAAAAAAXXX XXXX+6n*3Z      ...&X        O+OO+++++X++X+++X++oo++++++++++%%+++XAAAAAAAAAAAAAAA",
"AAAAAAAAAXX  XXXX+6v*6Z      ...XXo        ++O++++O++OO++++%++++X%%++%%+%++++++XAAAAAAAAAAAAAA",
"AAAAAAAA*XX  XXXX+6v*9Z      ...OOOO    X+  OX+++++OOO++O+o++o++++++%++++++%++#+XAAAAAAAAAAAAA",
"AAAAAAAA&XX  XXXX+68*kZ      ...OOOOXo  o%X o+X+X+++++++.+++++ +X++%X++%++++++##+XAAAAAAAAAAAA",
"AAAAAAAA+XXX X+XX+65*lZ      ....OO+++%++XX++++O++++++.+++OXX + X+++++O++++++++##XAAAAAAAAAAAA",
"AAAAAAAAXXXX XXXX+93*lC      ....OO+++%++XXXXXOXO++++++++++++o +++X+++%%++++++++#+#AAAAAAAAAAA",
"AAAAAAAAXXXX XXXo+7**ln      ....OO+++%++o.+++O++.++OX.X.+O+.+++++ ++%++++++++++#+oAAAAAAAAAAA",
"AAAAAAAAXXXX XXXo+9**kl      ....OO+++%++ X.OO+.+OOX+++++++o+++O O+XX++O++++++++++#AAAAAAAAAAA",
"AAAAAAAAXXXX X+XX+8*398      ....OO++++++ o.++.+O+.++++++++O  +XX   X++++++++++++++XAAAAAAAAAA",
"AAAAAAAAXXXX X+Xo+:3585      ....OO++++++ Xo++OO+O+.+++OOOO+o++++oO X+OO++++++++++X+AAAAAAAAAA",
"AAAAAAAAXX   X+XX+$5863      ....OOO+++++ ooOO+OO+.O++OOOOOO+oOX+  O%+O+O++++++++++XAAAAAAAAAA",
"AAAAAAAAXX   X+X&+&696&      ....OOO+++++  oOOOO.OO.+..O+.++O+#OX+O+++O++++++++++++++AAAAAAAAA",
"AAAAAAAAXX   X+ *+&8x6+      ....OOO+++++  oOO+O.O.+++O.++O+O XXoXXXXX.+OO+++++++++++AAAAAAAAA",
"AAAAAAAAXX   XX *X*kv6+      ....OOO+++%++ oOOOO.OO+++++O+OOOO+X  +++OO+++++O++++++++AAAAAAAAA",
"AAAAAAAAXX   X  6 3Z04+      ....OOO+++%++ oOO+O.O+.O++++OOOO XOo  oO+O+O+++O++++++++AAAAAAAAA",
"AAAAAAAXXXX  X  7 3v04+      ....OOO+++%++ooO+OOOOO+++O++OOOO X+O   OO+OO++++O+++O+++#AAAAAAAA",
"AAAAAAAXXXXX X Xv *v04+      ....OOO+++%++XXO+OOOOO.+++OO+OOO X#  .OOO.++O+O++++OO+++oAAAAAAAA",
"AAAAAAAXXXXXoXXXv *v04+      ....OOO+++%++oXOOO++OO+++++OOOOO o#o O+ OXO++.+O+++O++++XAAAAAAAA",
"AAAAAAAXXXXXXXo 3 *004+      ....OOO+++%++oXOOOOO+O++++++OO+Oo OOoOo+O+OOO+++++O+O+O+XAAAAAAAA",
"AAAAAAAXXX      3 *004+      ....OOO+++%%+XXOOOOOOO++O+OO+OOO+OOOOO OOOOOO+O+O+++O++OXAAAAAAAA",
"AAAAAAAXXX      * *094+      ....OOO+++%%+oX++O+OOO+++++OOO+OO OO  OO++.$OO+O+.OO++++X+AAAAAAA",
"AAAAAAAXXX      * &784+      ....OOO+++%%+XXOOOOOOO+++++OOO++O+OOOOOO+.O++.++O+++O+O+XoAAAAAAA",
"AAAAAAAXXX      * %673+      ....OOO++++%+XXOOOOOOO++++O+++OOOOO+++OOOOOOO+O+OOO+XXXXXXAAAAAAA",
"AAAAAAAXXX      * %66*+      ....OOO++++%+oXOO+OOOO+++++O+OOOOOOOOO+OOOOOOOOOO+OOXXXXXXAAAAAAA",
"AAAAAAAXXX      * %66*+      ....OOO++++%+oX+OO+OOO+++++O+OOO+++OO+OOOO+OOOO+OOOOXXXXXX+AAAAAA",
"AAAAAAA XX     OO+%66&OO     ....OOO++++%++XOO+++OO+++++O+++O++++O+++OO+OOO.+OOOOXXXXXXXAAAAAA",
"AAAAAAA        OO+&66&OO     ....OOO++++%++XOOOOOOO+++++OOOOO+OOO++++OOOOOOOOOOOOXXXXXXXAAAAAA",
"AAAAAAA        OO+&66&OO     ....OOO++++%++XO+++OOO+++++OOO++OOOOOOOO++++++OO++OOXXXXXXXAAAAAA",
"AAAAAAA        OO+&66&OO     ....OOO++++%++XO+++OOO++O++OO+++++OOOOOOOO++OOOOOOOOXXXXXXXAAAAAA",
"AAAAAAA        OO+&66&OO     ....OOO++++%++XOO++OOO+++++OOO++++++++OOOOOOOOOOOOO+XXXXXXXXAAAAA",
"AAAAAA         OO+%46&OO     ....OOO++++%++XOO+++OO+++++OOO+OO++++++++OOOOOOOOOOOXXXXXXXXAAAAA",
"AAAAAA         OO+%44&OO     ....OOO++++%++XOOO+OOO++#++OOO+OOOO++++++++OOOOOOOOOXXXXXXXXAAAAA",
"AAAAAA         OO+%34&OO     ....OOO++++%++XOO+OOOO++#++OOO+OXXXOOO++++++++OOOOOOXXXXXXXXAAAAA",
"AAAAAA         OO+%34&OO     ....OOO++++%%+X+OO+++O++#+++OOOOXXXXXXOOO++++%+OOOOOXXXXXXXXAAAAA",
"AAAAAA         OO+%34&OO     ....OOO++++%%+XOOOOOOO++#++OOOOOXXXXXXXXO+%&%%+OOOOOXXXXXXXXAAAAA",
"AAAAAA         OO+%34&OO     ....OOOO++++%+XOO+OOOO++##+OOOOOXXXXOOXXO+%&*&%OOOOOXXXXXXXXXAAAA",
"AAAAAA         OO+%34%OO     ....OOOO++++%+XOO+OOOO++##++OOOO+%&&&%+X++%&*&%+OOOOXXXXXXXXXAAAA",
"AAAAAA         OO+%34%OO     ....OOOO++++%++OOOOOOO+++#++OOO+%*5663*%++%&*&%+OOOOXXXXXXXXXAAAA",
"AAAAAA         OO+%34%OO     ....OOOO++++%++OOOOOOO++##+OOOO+&57874*%++%%&&%+OOOOXXXXXXXXXAAAA",
"AAAAAA         OO+%*3%OO     ....OOOO++++%++OOO+OOO++##++OOO+&58k063&+++%&*&%OOOOXXXXXXXXXAAAA",
"AAAAA          OO+%**%OO     ....OOOO++++%++OOOOOOO+++#++OOO+&58vl63&%++%&*&%+OOOXXXXXXXXXAAAA",
"AAAAA          OO+%**%OO     ....OOOO++++%++OOOOOOO++##++OOO+&59l963&+++%&*&%+OOOXXXXXXXXXXAAA",
"AAAAA          OO+%&&%OO     ....OOOO++++%+++OOOOOO++##++OOO+%389863&+++%&*&%+OOOXXXXXXXXXXAAA",
"AAAAA          OO+%%&%OO     ....OOOO++++%++OOOO+OO+++#++OOOO%379863&+++%&*&%+OOOXXXXXXXXXXAAA",
"AAAAA          OO+%%&%OO     ....OOOO++++%++OOOOOOO++##++OOOO%379863&+++%&*&%+OOOXXXXXXXXXXAAA",
"AAAAA          OO+%%&%OO     ....OOOO++++%++OOOOOOOO++##++OOO%369863&++++%&*&%OOOXXXXXXXXXXAAA",
"AAAAA          OO+%%&%OO     ....OOOO++++%++OOOOO+OO+++#++OOO%369863&++++%&*&%+OOXXXXXXXXXXAAA",
"AAAAA          OO+%%%%OO     ....OOOO++++%++OOOOOOOO++##++OOO%379863&++++%&*&%+OOXXXXXXXXXXXAA",
"AAAAA      &&&&&&0*%%%OO     ....OOOO++++%++OOOOOOOO++##++OOO%*59863&++++%&*&%+OOXXXXXXXXXXXAA",
"AAAA&&C0.OO******57&%%OO     ....OOOO+++++%++OOOOOOO+++#++OOOO&59863&++++%&*&%+OOXXXXXXXXXXXAA",
"&&&&**7*.OO&&&&&&. +%+OO     ....OOOO+++++%++OOOOOOO++##++OOOO&59863&++++%&*&%OOOXXXXXXXXXXXAA",
"****&&&&OOO    OO++++OOO     ....OOOO+++++%++XXXXOOO++##++XXXO%59863&++++%&*&%XXXXXXXXXXXXXXAA",
"&&&&           OO++++OOO     ....OOOO+++++%++XXXXOOO+++#++XXXO%59863&++X++%&*&%XXXXXXXXXXXXXAA",
"AAAA           OO++++OOO     ....OOOO+++++%++XXXXOOOO++##++XXO%49863&++X++%&*&%XXXXXXXXXXXXXXA",
"AAAA           OO++++OOO     ....OOOO+++++%++XXXXXOOO+++#++XXO%49863&+++++%&*&%XXXXXXXXXXXXXXA",
"AAAA           OO++++OOO     ....OOOO+++++%++XXXXXOOO++##++XXOO59863&+++++%&*&%XXXXXXXXXXXXXXA"
};
