/* XPM */
static char *result[] = {
/* columns rows colors chars-per-pixel */
"64 64 255 2 ",
"   c #0B0907",
".  c #170F07",
"X  c #1D0E07",
"o  c #1D150A",
"O  c #171109",
"+  c #1A1919",
"@  c #280D06",
"#  c #3D0A05",
"$  c #340905",
"%  c #231B0D",
"&  c #291C0D",
"*  c #261208",
"=  c #3C1C09",
"-  c #321A0C",
";  c #261E14",
":  c #3C1816",
">  c #29210F",
",  c #3B230D",
"<  c #2D2311",
"1  c #29251F",
"2  c #332513",
"3  c #352914",
"4  c #3C2B16",
"5  c #3C2614",
"6  c #3D3017",
"7  c gray14",
"8  c #2C2C2C",
"9  c #343434",
"0  c #3B3B3B",
"q  c #372B23",
"w  c #4C0301",
"e  c #4A0904",
"r  c #430603",
"t  c #5C0201",
"y  c #570805",
"u  c #471C08",
"i  c #581807",
"p  c #461613",
"a  c #551614",
"s  c #640101",
"d  c #6C0201",
"f  c #680A07",
"g  c #730302",
"h  c #7B0201",
"j  c #790B06",
"k  c #731908",
"l  c #691614",
"z  c #6D180E",
"x  c #4C220A",
"c  c #46260C",
"v  c #5A2709",
"b  c #472B15",
"n  c #542C12",
"m  c #433219",
"M  c #49351C",
"N  c #4D3A1D",
"B  c #483015",
"V  c #56371A",
"C  c #58350E",
"Z  c #672707",
"A  c #762804",
"S  c #6A330C",
"D  c #7B360A",
"F  c #6D2D15",
"G  c #783915",
"H  c #6B3016",
"J  c #4B3925",
"K  c #593C22",
"L  c #493630",
"P  c #663228",
"I  c #72441D",
"U  c #5C4023",
"Y  c #4B4436",
"T  c #624425",
"R  c #6D4A29",
"E  c #684728",
"W  c #734D2B",
"Q  c #794821",
"!  c #7B522E",
"~  c #76512E",
"^  c #7E5630",
"/  c #726428",
"(  c #3B6D6D",
")  c #4D4D4D",
"_  c #424242",
"`  c #584545",
"'  c #555555",
"]  c #5D564E",
"[  c #674E4B",
"{  c #656565",
"}  c #706868",
"|  c #656259",
" . c #850101",
".. c #8B0100",
"X. c #840C08",
"o. c #940101",
"O. c #9B0100",
"+. c #970E00",
"@. c #881804",
"#. c #971604",
"$. c #881917",
"%. c #9A1A1A",
"&. c #A30100",
"*. c #AB0000",
"=. c #AB0C02",
"-. c #B30100",
";. c #BD0100",
":. c #BA0B03",
">. c #A71901",
",. c #B41504",
"<. c #AE1111",
"1. c #882801",
"2. c #922D00",
"3. c #9B2503",
"4. c #883607",
"5. c #963101",
"6. c #9C3400",
"7. c #993A05",
"8. c #863A16",
"9. c #943517",
"0. c #A42700",
"q. c #B42501",
"w. c #A23A01",
"e. c #A93C01",
"r. c #B32B0A",
"t. c #902C2B",
"y. c #B02828",
"u. c #C30100",
"i. c #CB0000",
"p. c #C20B0B",
"a. c #D30000",
"s. c #DC0000",
"d. c #D60A07",
"f. c #CF160C",
"g. c #E70303",
"h. c #F90404",
"j. c #FB1414",
"k. c #EA160D",
"l. c #D43807",
"z. c #CE300B",
"x. c #EA300D",
"c. c #CE332D",
"v. c #FE2525",
"b. c #FF3636",
"n. c #EE3728",
"m. c #864516",
"M. c #984915",
"N. c #964911",
"B. c #AA4808",
"V. c #B34502",
"C. c #B54803",
"Z. c #BB4B03",
"A. c #B74907",
"S. c #B8530C",
"D. c #A74B13",
"F. c #A5551B",
"G. c #BD5A12",
"H. c #B55714",
"J. c #AD500E",
"K. c #8B5328",
"L. c #965626",
"P. c #825631",
"I. c #8B5B35",
"U. c #865632",
"Y. c #915E36",
"T. c #925F38",
"R. c #8E4B2D",
"E. c #A75A28",
"W. c #B45D21",
"Q. c #AC5137",
"!. c #9B653C",
"~. c #95623A",
"^. c #BD6324",
"/. c #A1683E",
"(. c #A66638",
"). c #B86D36",
"_. c #C24D06",
"`. c #D8440A",
"'. c #C95608",
"]. c #D35D0A",
"[. c #D2540F",
"{. c #C25D14",
"}. c #D55416",
"|. c #EB4E19",
" X c #DC630D",
".X c #CB6216",
"XX c #D66617",
"oX c #DD701D",
"OX c #E76B15",
"+X c #EE7216",
"@X c #F4771A",
"#X c #E2680D",
"$X c #EA502E",
"%X c #DD6521",
"&X c #C57438",
"*X c #CF7036",
"=X c #EA7726",
"-X c #F0742A",
";X c #C0442F",
":X c #A75251",
">X c #8F6D53",
",X c #A66C41",
"<X c #AA6E43",
"1X c #AA7346",
"2X c #B27345",
"3X c #BD7A4C",
"4X c #B77548",
"5X c #B0714F",
"6X c #857D76",
"7X c #D75450",
"8X c #F95656",
"9X c #ED4949",
"0X c #C27D4E",
"qX c #C57D54",
"wX c #DC7C49",
"eX c #F36D4F",
"rX c #D47A7A",
"tX c #F87471",
"yX c #FE8A35",
"uX c #F2832A",
"iX c #F2A52E",
"pX c #C08333",
"aX c #FFFC13",
"sX c #FFF734",
"dX c #928649",
"fX c #BC8158",
"gX c #A78872",
"hX c #8D867C",
"jX c #CA8557",
"kX c #D48B5C",
"lX c #D18657",
"zX c #F68C49",
"xX c #FB9555",
"cX c #F49D53",
"vX c #FCA35F",
"bX c #DC9567",
"nX c #D09570",
"mX c #E69A6A",
"MX c #E19C71",
"NX c #EEA272",
"BX c #F5A97A",
"VX c #FEB066",
"CX c #FCC74E",
"ZX c #FFF74F",
"AX c #FFEA79",
"SX c #898989",
"DX c #AD9999",
"FX c #D3AD96",
"GX c #FDB588",
"HX c #F6B68E",
"JX c #E78383",
"KX c #FFD494",
"LX c #FFCDAB",
"PX c #FFFFD7",
"IX c None",
/* pixels */
"IXIXIXIXIXIXIXIXIXIXIXIXIXIXIXIXIXIXIXIXIXIXIXIXIXIXIXIXIXIXIXIXIXIXIXIXIXIXIXIXIXIXIXIXIXIXIXIXIXIXIXIXIXIXIXIXIXIXIXIXIXIXIXIX",
"IXIXIXIXIXIXIXIXIXIXIXIXIXIXIXIXIXIXIXIXIXIXIXIXIXIXIXIXIXIXIXIXIXIXIXIXIXIXIXIXIXIXIXIXIXIXIXIXIXIXIXIXIXIXIXIXIXIXIXIXIXIXIXIX",
"IXIXIXIXIXIXIXIXIXIXIXIXIXIXIXIXIXIXIXIXIXIXIXIXIXIXIXIXIXIXIXIXIXIXIXIXIXIXIXIXIXIXIXIXIXIXIXIXIXIXIXIXIXIXIXIXIXIXIXIXIXIXIXIX",
"IXIXIXIXIXIXIXIXIXIXIXIXIXIXIXIXIXIXIXIXIXIXIXIXIXIXmXGXNXkXNXBXmXbXBXNXkXMXGXIXIXIXIXIXIXIXIXIXIXIXIXIXIXIXIXIXIXIXIXIXIXIXIXIX",
"IXIXIXIXIXIXIXIXIXIXIXIXIXIXIXIXIXIXIXIXIXIXIXIX9 ] 6XFXmXGXbXLXHXBXHXHXBXHXFXgX{ IXIXIXIXIXIXIXIXIXIXIXIXIXIXIXIXIXIXIXIXIXIXIX",
"IXIXIXIXIXIXIXIXIXIXIXIXIXIXIXIXIXIXIXIXIXIX' SX| l $.nXMXHXkXBXBXNXGXkXvXMXbXl $.{ IXIXIXIXIXIXIXIXIXIXIXIXIXIXIXIXIXIXIXIXIXIX",
"IXIXIXIXIXIXIXIXIXIXIXIXIXIXIXIXIXIXIX8 { ' L 1XD.5 R.R.jXfX3X3X4XOX&X(.*X0X&XF J &XR.) } _ IXIXIXIXIXIXIXIXIXIXIXIXIXIXIXIXIXIX",
"IXIXIXIXIXIXIXIXIXIXIXIXIXIXIXIXIXIXIX8 ) q g e.XXo Q.O.P ~ 1X~.C C.V A.F.9.$X*XY ^ B.l { _   IXIXIXIXIXIXIXIXIXIXIXIXIXIXIXIXIX",
"IXIXIXIXIXIXIXIXIXIXIXIXIXIXIXIXIXIXIX  1 r   O     2 2 2 U.wXqX2X&X0X-X'.v D C o > y o. .+   IXIXIXIXIXIXIXIXIXIXIXIXIXIXIXIXIX",
"IXIXIXIXIXIXIXIXIXIXIXIXIXIXIXIXIXIXIX    r * o % IXIX2 o B :X%XeXeX}.Q.m.- IXIXIXO   > .   IXIXIXIXIXIXIXIXIXIXIXIXIXIXIXIXIXIX",
"IXIXIXIXIXIXIXIXIXIXIXIXIXIXIXIXIXIXIXIXIXIXIXIX! U m < < 6 8.X.1.#.>.8.N 2 IXIXIXIXIXIXIXIXIXIXIXIXIXIXIXIXIXIXIXIXIXIXIXIXIXIX",
"IXIXIXIXIXIXIXIXIXIXIXIXIXIXIXIXIXIX,XR o 3 W I.jXT.K P.E K Q.5XeXeX-XF.N.M E ! U.W IXIXIXIXIXIXIXIXIXIXIXIXIXIXIXIXIXIXIXIXIXIX",
"IXIXIXIXIXIXIXIXIXIXIXIXIXIXIXIXlXkX,XM 6 Y.3XmXmX<X3XkX<XE Z.8.J C M.].4.^ ~.P./.^ IXIXIXIXIXIXIXIXIXIXIXIXIXIXIXIXIXIXIXIXIXIX",
"IXIXIXIXIXIXIXIXIXIXIXIXIXIXH qXGXNX<X! R <XjXbXNXNXNXmXkX4XE.E < 2 Q M.W ~.T.P.I.I.~.I.P.E.^.F.! IXIXIXIXIXIXIXIXIXIXIXIXIXIXIX",
"IXIXIXIXIXIXIXIXIXIXIXIX..9.N E I.W E ! ^ ! Y.,X3XjXkXkXkX3XXXoX,X,X4XqX3X4X5X2X,X(.<XE.W.].@X X'.B.IXIXIXIXIXIXIXIXIXIXIXIXIXIX",
"IXIXIXIXIXIXIXIXIXIXIXo.IXI.W % % 2 I.I.E U I.<X!.!.,XH.H..XXX^.I.I.'.].).&X&X).).Y.G V.'.'.#X X].B.IXIXIXIXIXIXIXIXIXIXIXIXIXIX",
"IXIXIXIXIXIXIXIXIXIX*.IX!.~.N % 3 4 b < % ; m W !.3X0X4X<XE.^.(.K.R B.Z.G.G..XG.G.J.7.2.n Z.+X+X].B.IXIXIXIXIXIXIXIXIXIXIXIXIXIX",
"IXIXIXIXIXIXIXIXIXIXa.IX<X3X~ % % O . . . o % % < N 4.D.G.].#XG.J.K.Z.'..X.XG..XG.H.7.v S V._.'.].'.G IXIXIXIXIXIXIXIXIXIXIXIXIX",
"IXIXIXIXIXIXIXIXIXIXh.IXR ! U o o o O % % , D D 4 % o & u v 5.7.J.Q V 4.5.e.V._.V.Z & Z Z. X].#X@X+XV.G IXIXIXIXIXIXIXIXIXIXIXIX",
"IXIXIXIXIXIXIXIXIX&.a.& > % > o o o o % > % C B.Z.m 3 3 M R P.D._.Z.W U 6 2 > % = Z c J. XuX+XuXyX+X XZ.IXIXIXIXIXIXIXIXIXIXIXIX",
"IXIXIXIXIXIXIXIXIXj.[ % > o . o . o o IX4 2 > Z > ~ L.Y.M.M.m.B.J.S.G. XS.Q 6 % A 6.Z N.%XyX=X-XyX@X Xw.d IXIXIXIXIXIXIXIXIXIXIX",
"IXIXIXIXIXIXIXIXIXf.SX* o o o O % % IXIXN m 4 4 R L.N.b 6 W J.D V I n C S..XJ.G > = * i _.%X%X%X=X%X[.IXIXIXIXIXIXIXIXIXIXIXIXIX",
"IXIXIXIXIXIXIXIXIXH Y o o . O > % IXIXIX6 N m U E.N.< < K S.w., c Z.'.1.Z 7.=X'.D o x :Xc.8XJXJXrXk.c.* w s s IXIXIXIXIXIXIXIXIX",
"IXIXIXIXIXIXIXIXIXR B o o o o > IXIXIXIXIX2 < ~ U 3 o o 6 Z % o % 3 d 3.k k Z S c K 7Xn.tXtXtX8X8Xi.<. .d o.h s t IXIXIXIXIXIXIX",
"IXIXIXIXIXIXIXIX,X^ 6 6 U < o o IXIXIXIXIXIX3 % o O O o o . % % - ..e j *.O.;.>.o.s.h.v.b.f.p.:.k.i.a.u.g t &. .IXIXIXIXIXIXIXIX",
"IXIXIXIXIXIXIXIXY R M J J < > IXIXIXIXIXIXIXIXo . * X @ . * r w @ h  .o.i.&.&.O.;.$.t.t.t.f.b.y.a.;.s.-.O. .s IXIXIXIXIXIXIXIXIX",
"IXIXIXIXIXIXIXSX] W U J 3 < < IXIXIXIXIXIXIXIX@ X # g s g e j  .* w h O.;.;.;.a.>.:.<.b.8Xb.9X<.s.s.;.O.i.&.d IXIXIXIXIXIXIXIXIX",
"IXIXIXIXIXIXIXDXY I.W 6 < o < IXIXIXIXIXIXIXt # e r e w &.e j u.r r  .O.o.3.=.i.;.V.f.8X$Xb.8Xk.j.`.a.s.*.IXs t IXIXIXIXIXIXIXIX",
"IXIXIXIXIXIXIX6XW I.T % q < IXIXIXIXIXIXIXIXt r e . # g g #  .O. .f ..s o.o. .-.k.x.a.k.-Xc.f.|.eXd.=.u. .s s IXIXIXIXIXIXIXIXIX",
"IXIXIXIXIXIXIXW U./.J | ) IXIXIXIXIXIXIXIXIX# w $ $ g f d w o.y j &.d r y t t e ;.l.uX`.zX$X$XyX+Xl.X.a IXIXIXIXIXIXIXIXIXIXIXIX",
"IXIXIXIXIXIXIX~.!.m IX) IXIXIXIXIXIXIXIXIXIX% $ X e # y . r &.# O.&.t -.e h # . - #.zXKXAXVXLXxXk.l ' 0 IXIXIXIXIXIXIXIXIXIXIXIX",
"IXIXIXIXIXIXT jX4XE IXIXIXIXIXIXIXIXIXIXIXm M < b @ @ y * @ f $ j j X.@.,.>.#.& G W.mXsXAXsXKXzXz.t._ 8 IXIXIXIXIXIXIXIXIXIXIXIX",
"IXIXIXIXIX< E bX1Xm IXIXIXIXIXIXIXIXIXIXm Y.U N ! R 9.G m.m 6.A F _.1.S. X'. XB.C.XXCXZXPXaXKXyXl.:.9 7 IXIXIXIXIXIXIXIXIXIXIXIX",
"IXIXIXIXIXT ! I.K IXIXIXIXIXIXIXIXIXIXIXU ^ ~ !.I.E R m.m.T m.m.w.V.].].[.'.`.f.q.#XiXsXZXZXvXyX+Xf.;. .j t IXIXIXIXIXIXIXIXIXIX",
"IXIXIXIXIX4 /.2 M ,XIXIXIXIXIXIXIXIXIX{ >X~.I.~.).K.4 % . o > > u v S q.;.u.i.p.r.D uXaXCXOXq.:.,.z.g.=.,.o.o. .t IXIXIXIXIXIXIX",
"IXIXIXIXIX% I.K 2 J IXIXIXIXIXIXIXIX,XjXY.3X).(.~.{.XXA * @ * c x A y o.-.*.u.,.O.Q &XvXXX].-.-.O.h >.=.#.O.;.O.` f h IXIXIXIXIX",
"IXIXIXIXIXIX2 U W W IXIXIXIXIXIXU fXkX<X0X0XE.]..XT 7.N.j k 2.A u e j o.*.-.&...D e. XXX>.q.-.h $ w ` O.;.*.*. .L l IXd IXIXIXIX",
"IXIXIXIXIXIXIXIX> U IXIXIXIXIX4X4 bX1X^ lXmX3XK.F.{.K A A A , o X @ z  .&.+.6.@.G C.'.6.@.;.0. .IXIXt g *.i.u.o.O.g g IXIXIXIXIX",
"IXIXIXIXIXIXIXIXIXIXIXIXIXIXIX2X3 3X1X2XmXbX4XF.F.K.V m % % IXo o 3 @. .o.3.q.v Z e.C.+.O.&.#.&.s IXIXs  .....h ..s s IXIXIXIXIX",
"IXIXIXIXIXIXIXIXIXIXIXIXIXIX! U.E 2X2X~.lXjXW.'.'.w.& Z = IXIXIXIX< Z #.5.5.2.n v 2.w.#.i.O.O.&.d IXIXIXIX( ..s d d t IXIXIXIXIX",
"IXIXIXIXIXIXIXIXIXIXIXIXIXIXN M kX1X/.I.4X!.'.].Z.5.% 4.= IXIXIXIX& % v A b 2 & B 1.0.u.*.o.-.o.s w IXIXIXIXIXIXd IXt IXIXIXIXIX",
"IXIXIXIXIXIXIXIXIXIXIXIXIXIX; 6 >X!.~.R ~ m.Z.V.6.v v 4.IXIXIXIXIXIX% ; % > < > , 1.3.=.*.o.O.h t IXIXIXIXIXIXIXIXIXIXIXIXIXIXIX",
"IXIXIXIXIXIXIXIXIXIXIXIXIXIX+ 6XV U.P.U K 5.w.2.Z u w.1.IXIXIXIXIXIX% > o o % % ; Z 1.@.>.s h d t IXIXIXIXIXIXIXIXIXIXIXIXIXIXIX",
"IXIXIXIXIXIXIXIXIXIXIXIXIX0 { DXB ~ R M 6 v i & o v 5.S IXIXIXIXIXIXIX% ; - = % o * 5 1.1.f b t IXIXIXIXIXIXIXIXIXIXIXIXIXIXIXIX",
"IXIXIXIXIXIXIXIXIXIXIXIXIX) :Xt.6 E T G , u o o 2 < < IXIXIXIXIXIXIXIXIX% % x 2.c o % - 4 4 i IXIXIXIXIXIXIXIXIXIXIXIXIXIXIXIXIX",
"IXIXIXIXIXIXIXIXIXIXIXIX0 ) d.P M B Z A Z 4.% 4 < 3 IXIXIXIXIXIXIXIXIXIX% > O 2 5 o o % o % IXIXIXIXIXIXIXIXIXIXIXIXIXIXIXIXIXIX",
"IXIXIXIXIXIXIXIXIXIXIXIX} c.s.$.3 % % o A : m 4 H IXIXIXIXIXIXIXIXIXIXIXIX% % % O . o o = c IXIXIXIXIXIXIXIXIXIXIXIXIXIXIXIXIXIX",
"IXIXIXIXIXIXIXIXIXIXIX) c.l P j > o o o % j k k F IXIXIXIXIXIXIXIXIXIXIXIXIX2 % o O O O = b IXIXIXIXIXIXIXIXIXIXIXIXIXIXIXIXIXIX",
"IXIXIXIXIXIXIXIXIXIX8 { 9 8 :Xp.s.X.- % s  .o.<.IXIXIXIXIXIXIXIXIXIXIXIXIXIX< O . o X % = c IXIXIXIXIXIXIXIXIXIXIXIXIXIXIXIXIXIX",
"IXIXIXIXIXIXIXIXIXIX+ 7 8 rXv.g.g.h.s.a f o.p.IXIXIXIXIXIXIXIXIXIXIXIXIXIXIX% o o & % < 2.2.n IXIXIXIXIXIXIXIXIXIXIXIXIXIXIXIXIX",
"IXIXIXIXIXIXIXIXIXIX..%.[ 8Xk.-.-.s.g.g.; *.a IXIXIXIXIXIXIXIXIXIXIXIXIXIXIX% % o 1.k < 2.w.2.n IXIXIXIXIXIXIXIXIXIXIXIXIXIXIXIX",
"IXIXIXIXIXIXIXIXIX) :X$X7Xv.x.a p u.s.i.p p IXIXIXIXIXIXIXIXIXIXIXIXIXIXIXIXm o o u i & v 5.1.c IXIXIXIXIXIXIXIXIXIXIXIXIXIXIXIX",
"IXIXIXIXIXIXIXIX+ _ ) C.b.h.M...%.n.s.j + IXIXIXIXIXIXIXIXIXIXIXIXIXIXIXIXIXIX% . o o o o x u IXIXIXIXIXIXIXIXIXIXIXIXIXIXIXIXIX",
"IXIXIXIXIXIXIXIX8 ) ' V.x.x.n a.=Xx.u.p IXIXIXIXIXIXIXIXIXIXIXIXIXIXIXIXIXIXIXIXo o % > & = x 5 IXIXIXIXIXIXIXIXIXIXIXIXIXIXIXIX",
"IXIXIXIXIXIXIXIX9 _ 9 l.j.`.g l.xXf.a IXIXIXIXIXIXIXIXIXIXIXIXIXIXIXIXIXIXIXIXIX% < v 2.2.6.6.2.e.m.IXIXIXIXIXIXIXIXIXIXIXIXIXIX",
"IXIXIXIXIXIXIXIX7 + 0 b.v.j.*.cX[.o.IXIXIXIXIXIXIXIXIXIXIXIXIXIXIXIXIXIXIXIXIXIXIXo Z 2.w.Z.Z.N.C.B.N IXIXIXIXIXIXIXIXIXIXIXIXIX",
"IXIXIXIXIXIXIXIXIXY >X8X-XzXzXCXXXa IXIXIXIXIXIXIXIXIXIXIXIXIXIXIXIXIXIXIXIXIXIXIXo & c c c n B n b < IXIXIXIXIXIXIXIXIXIXIXIXIX",
"IXIXIXIXIXIXIX_ ' r.Q.z.b.tXeXuXk.IXIXIXIXIXIXIXIXIXIXIXIXIXIXIXIXIXIXIXIXIXIXIXIXIX. . & Z A A A x > IXIXIXIXIXIXIXIXIXIXIXIXIX",
"IXIXIXIXIXIXIX8 9 ) t.%.k.b.|.[.g.y IXIXIXIXIXIXIXIXIXIXIXIXIXIXIXIXIXIXIXIXIXIXIXO % o & 2 n 2.c < % . IXIXIXIXIXIXIXIXIXIXIXIX",
"IXIXIXIXIXIXIX+ 7 J K.>X>XdXdX/ v O IXIXIXIXIXIXIXIXIXIXIXIXIXIXIXIXIXIXIXIXIXIXIX. o o > c 1.5.1.B > o IXIXIXIXIXIXIXIXIXIXIXIX",
"IXIXIXIXIXIXIX8 9 L | ` p.|.#X=X%.: IXIXIXIXIXIXIXIXIXIXIXIXIXIXIXIXIXIXIXIXIXIXIX. o > x k D 4.D A u & IXIXIXIXIXIXIXIXIXIXIXIX",
"IXIXIXIXIXIXIX7 8 9 ) } %.g.|.|.X.> IXIXIXIXIXIXIXIXIXIXIXIXIXIXIXIXIXIXIXIXIXIXIXIXo . . % & < & o o . IXIXIXIXIXIXIXIXIXIXIXIX",
"IXIXIXIXIXIXIX7 8 0 ' ` u.k.|.x.: o IXIXIXIXIXIXIXIXIXIXIXIXIXIXIXIXIXIXIXIXIXIXIXIXIXIXIXIXIXIXIXIXIXIXIXIXIXIXIXIXIXIXIXIXIXIX",
"IXIXIXIXIXIXIXIX7 7 9 9 0 0 8 7 + IXIXIXIXIXIXIXIXIXIXIXIXIXIXIXIXIXIXIXIXIXIXIXIXIXIXIXIXIXIXIXIXIXIXIXIXIXIXIXIXIXIXIXIXIXIXIX"
};
