/* XPM */
static char *result[] = {
/* columns rows colors chars-per-pixel */
"64 64 69 1 ",
"  c #010101",
". c #04050A",
"X c #0B0B0B",
"o c #060710",
"O c #070912",
"+ c #080A17",
"@ c #0A0D1C",
"# c #141414",
"$ c #10121C",
"% c #1C1C1C",
"& c #0C0F20",
"* c #0D1125",
"= c #0F1229",
"- c #111425",
"; c #1C1D23",
": c #13162A",
"> c #15192C",
", c #121731",
"< c #131836",
"1 c #151B3C",
"2 c #242424",
"3 c #25272E",
"4 c #2C2C2C",
"5 c #222432",
"6 c #272B3C",
"7 c #2B2D3B",
"8 c #343434",
"9 c #3B3B3B",
"0 c #171D40",
"q c #191F46",
"w c #2F3242",
"e c #293575",
"r c #2D397F",
"t c #303C7F",
"y c #434343",
"u c #4E4E4E",
"i c #555555",
"p c #585858",
"a c #747474",
"s c #7F7F7F",
"d c #2D3A80",
"f c #323E83",
"g c #313E8A",
"h c #33418E",
"j c #344293",
"k c #36469B",
"l c #3A4AA4",
"z c #3C4DAC",
"x c #3E4FB0",
"c c #3F51B5",
"v c #4052B6",
"b c #59C4C2",
"n c #828282",
"m c #8B8B8B",
"M c #949494",
"N c #9C9C9C",
"B c gray65",
"V c #AAAAAA",
"C c gray70",
"Z c #BCBCBC",
"A c #C4C4C4",
"S c #CBCBCB",
"D c #D4D4D4",
"F c #DBDBDB",
"G c #E2E2E2",
"H c #ECECEC",
"J c #F2F2F2",
"K c #FFFFFF",
"L c None",
/* pixels */
"LLLLLLLLLLLLLLLLLLLLLLLLLLLLLLLLLLLLLLLLLLLLLLLLLLLLLLLLLLLLLLLL",
"LLLLLLLLLLLLLLLLLLLLLLLLLLLLLLLLLLLLLLLLLLLLLLLLLLLLLLLLLLLLLLLL",
"LLLLLLLLLLLLLLLLLLLLLLy%%22%%22%%2%2%22%LLLLLLLLLLLLLLLLLLLLLLLL",
"LLLLLLLLLLLLLLLLLLLLLX4                 XLLLLLLLLLLLLLLLLLLLLLLL",
"LLLLLLLLLLLLLLLLLL4 X#SKKKKKJKKKJKKKKKJK4   LLLLLLLLLLLLLLLLLLLL",
"LLLLLLLLLLLLLLLLL 9%%4FKKKKKKKKKKKKKKKKKy%2% LLLLLLLLLLLLLLLLLLL",
"LLLLLLLLLLLLLLLL48AFFGKKKKKKKKKKKKKKKKKKGFFFy4LLLLLLLLLLLLLLLLLL",
"LLLLLLLLLLLLLLLL##DKKKKKKKKKKKKKKKKKKKKKKKKK4XLLLLLLLLLLLLLLLLLL",
"LLLLLLLLLLLLLLLL##DKKKKKKKKKKKKKKKKKKKKKKKKK4XLLLLLLLLLLLLLLLLLL",
"LLLLLLLLLLLLLLL428FKKKKKKKKKKKKKKKKKKKKKKKKKy2 LLLLLLLLLLLLLLLLL",
"LLLLLLLLLLLLLL  SGKKKKKKKKKKKKKKKKKKKKKKKKKKGDu2LLLLLLLLLLLLLLLL",
"LLLLLLLLLLLLLL XHKKKKKKKKKKKKKKKKKKKKKKKKKKKKJ8 LLLLLLLLLLLLLLLL",
"LLLLLLLLLLLLLLX HKKKKXXXXKKKKKKKKKKKKXX#XKKKKJ9 LLLLLLLLLLLLLLLL",
"LLLLLLLLLLLLLLX JKKK#    #DKKKKKKKKK2 bb XSKKK8 LLLLLLLLLLLLLLLL",
"LLLLLLLLLLLLLL XHKKK#    #DKKKKKKKKK2b  bXSKKJ9 LLLLLLLLLLLLLLLL",
"LLLLLLLLLLLLLL  JKKK#    #DKKKKKKKKK2b  bXSKKJ8 LLLLLLLLLLLLLLLL",
"LLLLLLLLLLLLLL XJKKK#    #DKKH9#FKKK4 bb XSKKJ9 LLLLLLLLLLLLLLLL",
"LLLLLLLLLLLLLL XFHKKD####DKKHF4 SHKKD####DKKHGy#LLLLLLLLLLLLLLLL",
"LLLLLLLLLLLLLLL 89FKKDFDDKJKy4X 29FKKDDDFKJKu4XLLLLLLLLLLLLLLLLL",
"LLLLLLLLLLLLLLLL##DKKKKKKKKK#    XSKKKKKKKKK4XLLLLLLLLLLLLLLLLLL",
"LLLLLLLLLLLLLL9# #DK42FKKKKKHHHHHHKKKKKK9%DK4 ##LLLLLLLLLLLLLLLL",
"LLLLLLLLLLLLLL2 #4FK##AHGHHHHHGHHHHGHHHH2XSK9#  LLLLLLLLLLLLLLLL",
"LLLLLLLLLLLLLL2 AFKK# 244444444444444444 XSKFS4 LLLLLLLLLLLLLLLL",
"LLLLLLLLLLLLLL2 JKKK#                    XSKKJ9 LLLLLLLLLLLLLLLL",
"LLLLLLLLLLLLLL4 HKKKHD2 DD4 SF4 SF4 SF4 AGKKKJ8 LLLLLLLLLLLLLLLL",
"LLLLLLLLLLLLLL8#GHHHKH9#DF4 DF4 DF4 SG9#FKHHJGy#LLLLLLLLLLLLLLLL",
"LLLLLLLLLLLLLLL 9444HKFD94  24X 24  29CDKJp448 LLLLLLLLLLLLLLLLL",
"LLLLLLLLLLLLLLLLX   HKKK#            XSKKJ8  XLLLLLLLLLLLLLLLLLL",
"LLLLLLLLLLLLLL9%    #%#%DGGGGHGGGGGGGFy##%X   #%LLLLLLLLLLLLLLLL",
"LLLLLLLLLLLLLX3.        FJHHHHJHJHJHJG8       .. LLLLLLLLLLLLLLL",
"LLLLLLLLLLLL97fj.       44488484484844X      .ejw8LLLLLLLLLLLLLL",
"LLLLLLLLLLLLXOkvo                             hv*XLLLLLLLLLLLLLL",
"LLLLLLLLLL9% Okc.Xammn% SGGFGD4 AFFGGD4 ammm% hc* #2LLLLLLLLLLLL",
"LLLLLLLLLL2 .+kc+#nMNm2XFHJJHF9XDJJHJG8XnNNM;Ojc:.  LLLLLLLLLLLL",
"LLLLLLLLLL2 hjcckg5;MNnn988489CSy84889asNN9;tjxckg& LLLLLLLLLLLL",
"LLLLLLLLL42 ccvvcl@ MNNNX    #DK2     nNNM2 jvvccx=  LLLLLLLLLLL",
"LLLLLLLL43hk&+@++=gk;##% #CFFDy2AFFF% ###%dk,@++kclk64LLLLLLLLLL",
"LLLLLLLL.Okvo....+jz+... #DKKH9XGKKK2 ...Ogz=...jccc= LLLLLLLLLL",
"LLLLLLLLXOkvjjjjjg<*gjgj.#DKKKDSKKKK2 ejjh1*rjjjzccc*XLLLLLLLLLL",
"LLLLLLLLXOkvcccccl@ zccco#DKKKKKKKKK3.jvcx* jcccvccc* LLLLLLLLLL",
"LLLLLLLLX+kvvccccckk==kcO 24HKKKKJi4..jv<*tkcccccccc: LLLLLLLLLL",
"LLLLLLLL#$jxccccccxz++kcO XXGKKKKH9X .jv&ogzccccccxz>#LLLLLLLLLL",
"LLLLLLLLL 6:zvcccz1*gjzcOXBSJKKKKKDS;.jckg1&kccccxq= LLLLLLLLLLL",
"LLLLLLLLLL2 zvcccl@ zcccO#DKKKKKKKKK2.gvxz= jccccx: LLLLLLLLLLLL",
"LLLLLLLLLLL :@&&zl@ lxccO 2444444444 .jxvx* kz0&&- LLLLLLLLLLLLL",
"LLLLLLLLLLLL#X  ll@ zxccO            .jvcz= gz* XXLLLLLLLLLLLLLL",
"LLLLLLLLLLLLLL% &=  zcccO            .jxcz= &=. LLLLLLLLLLLLLLLL",
"LLLLLLLLLLLLLL2     zcccO            .jvcx&     LLLLLLLLLLLLLLLL",
"LLLLLLLLLLLLLLLLX   &*&*              @&*&   XLLLLLLLLLLLLLLLLLL",
"LLLLLLLLLLLLLLLLX                            XLLLLLLLLLLLLLLLLLL",
"LLLLLLLLLLLLLLi8                              49LLLLLLLLLLLLLLLL",
"LLLLLLLLLLLLLL2                                 LLLLLLLLLLLLLLLL",
"LLLLLLLLLLLLLL4              XLL#               LLLLLLLLLLLLLLLL",
"LLLLLLLLLLLLLL4              #LL2               LLLLLLLLLLLLLLLL",
"LLLLLLLLLLLLLLLLX           LLLLLL2           LLLLLLLLLLLLLLLLLL",
"LLLLLLLLLLLLLLLLX           LLLLLL8          XLLLLLLLLLLLLLLLLLL",
"LLLLLLLLLLLL9988 #VSASSASC2 LLLLLL8 VASASASS2 4989LLLLLLLLLLLLLL",
"LLLLLLLLLLLLX    #FKKKKKKH4 LLLLLL4 FKKKKKKK4    XLLLLLLLLLLLLLL",
"LLLLLLLLLLLLX#VAASJKKKKKu8X LLLLLL4 8uFKKKKKSAAA2XLLLLLLLLLLLLLL",
"LLLLLLLLLLLLX#FKKKKKKKKK#   LLLLLL8  XSKKKKKKKKK8.LLLLLLLLLLLLLL",
"LLLLLLLLLLLLLXu9y9999999XLLLLLLLLLLLL p999y99999 LLLLLLLLLLLLLLL",
"LLLLLLLLLLLLLL2         LLLLLLLLLLLLLL8         LLLLLLLLLLLLLLLL",
"LLLLLLLLLLLLLLLLLLLLLLLLLLLLLLLLLLLLLLLLLLLLLLLLLLLLLLLLLLLLLLLL",
"LLLLLLLLLLLLLLLLLLLLLLLLLLLLLLLLLLLLLLLLLLLLLLLLLLLLLLLLLLLLLLLL"
};
