/* XPM */
static char *_aea7c561d5d4fdce337554b5e73de88[] = {
/* columns rows colors chars-per-pixel */
"176 80 52 1 ",
"  c None",
". c #8A6F3B",
"X c #8D723E",
"o c #8F7440",
"O c #917642",
"+ c #947945",
"@ c #967D49",
"# c #97804C",
"$ c #98824E",
"% c #9F9249",
"& c #9A8552",
"* c #9B8955",
"= c #9D8D59",
"- c #9E9355",
"; c #9F915D",
": c #A0934B",
"> c #A09456",
", c #A39956",
"< c #A0925E",
"1 c #A79B58",
"2 c #A99E5D",
"3 c #A29662",
"4 c #A49A66",
"5 c #AA9F60",
"6 c #A69E6A",
"7 c #AAA163",
"8 c #A7A06C",
"9 c #ADA56B",
"0 c #A9A571",
"q c #ACA975",
"w c #AEAE7B",
"e c #B0AF7F",
"r c #B0B07F",
"t c #B1B182",
"y c #B6B68B",
"u c #B8B88F",
"i c #B7B790",
"p c #BABA93",
"a c #BEBE9B",
"s c #C0C09F",
"d c #C2C2A3",
"f c #C6C6AB",
"g c #C8C8AF",
"h c #C9C9B3",
"j c #CDCDBB",
"k c #D1D1C3",
"l c #D5D5CB",
"z c #DADAD4",
"x c #DEDEDB",
"c c #E2E2E2",
"v c #EBEBEB",
"b c gray94",
/* pixels */
"                                                                                                                                     -->>>>>;->,;->>>>>>>>>>;>>>>>>>>>>>>>=>>>- ",
"                        :::::::::::::::::::::::::::::::::::::::::::::::::::::::::::::::::::::::::::::::::::::::::::::::::::::%      -%::::::%%:%:::::%::::::::::::::%%::::%::::-",
"                      %%::::::::::::::::::::::::::::::::::::::::::::::::::::::::::::::::::::::::::::::::::::::::::::::::::::::::    >::%%%::%%%%:%%%%%:::::::%::%%::%%%%:%%%:::>",
"      ::::::          ::ttttttttttttttttttttttttttttttttttttttttttttttttttttttttttttttttttttttttttttttttttttttttttttttttttttet::    ,:,rttttttttttttttttwtttettwttttttttttttt::>",
"      ::::::          ::t                                                                                                    t::    >::wttttttttttttttidhjhgfaytttttttttttttt%%>",
"      ::tt::          ::t                                                                                                    t::    ,,:ttttttttttttttyhzcxxzlhauttttttttttttt%:>",
"      ::tt::          ::t                                                                                                    t::    ,:%twttttttttttsjhzhw4346w00yyttttttttttt::>",
"      ::tt::          ::t                                                                                                    r::    >,%ttttttttttyplgdkw*$@$@$=&3iitttttttttt::>",
"11,,,1%1tt1%11-21     ::t                                                                                                    t::    ,::ttttttttttskzatf0$@$&@$*@&wpyttttttttt%%-",
"%::%%%:qttq%%%%%%:    ::t                                                                                                    t::    ,,:wttttttttsxch66f0&@@@@@=@+&qaytttttttt&:-",
":%8778qttttq7787::    ::t                                                                                                    t::    ,%%tttttttttkccp36gw=*&@@$=++@;spyttttttt::>",
":%tttttttttttttr::    ::t                                                                                                    r::    ,%,wtttttttazcxp30kt<**@$=4$@@*uaattttttt::>",
"::wewwttttttwwrw::    ::t                                                                                                    t::    >::wttttttplxlzs88p6*@@$@@&&@&&6akptttttw::>",
":%::::1ettt2%%::::    ::t                                                                                                    t::    ,,:ttttttykvzflfw=*04$$+@@++@*;=achtttttt%:>",
",:,::,:,tt2%-:,:,1    ::t                                                                                                    t::    ,::ttttttpcbzpjky=*33$+O++++&=3&sczyttttt::>",
"      ::tt%%          ::t                                                                                                    r::    ,,:wrttttdvbktdzfw3==&+++++@&60=szcpttttt::>",
"      ::tt::          ::t                                                                                                    t::    ,::ttttttfvcupjjdyq3=#+++++@&ya86dcdttttt%%>",
"      ::tr::          ::t                                                                                                    t::    ,,:wttttthxdwjdgdtq4$++o++O+4yet<<hyytttt%:>",
"      ::::::          %:tttttttttttttttttttttttttttttttttttttttttttttttttttttttttttttttttttttttttttttttttttttttttttttttttttttr::    ,%%tttttthlyyt;qhpw4;*@+++$3t3$36&uqttttt%%>",
"      ::::::          %::::::::::::::::::::::::::::::::::::::::::::::::::::::::::::::::::::::::::::::::::::::::::::::::::::::::%    ,%,wtttydfjptq;*4ysy4=#@$;63&+$=<<rqyyttt%:>",
"                       %:::::::::::::::::::::::::::::::::::::::::::::::::::::::::::::::::::::::::::::::::::::::::::::::::::::::     ,::wttypytdptw4<*$3p6&++&q$O+$=3=36qtyytt::>",
"                                                                                                                                    >,:twydy<8fatywq3**84=##$*#@$<8q&&3430yit%:>",
"                                                                                                                                    ,:%ttdjy*4faqpyrq3;*$*&*=343<0rr$$4*+0tpt%:>",
"                                                                                                                                    ,,%tyjdy=;gs0ddyt86<$#$&=366qtyq+$q@O88yt%>>",
"                                                                                                                                    ,::tskay;@ahudjsutwq<=<<6wwpauy3$;3Xo3;tt%%>",
"                                                                                                                                    ,,:wdjau;X;sdudfattr83889yusgt8$*=$.X$@6t::>",
"                                                                                                                                    ,%%ttpup8Xowgywyupyyq80qwttdh6*&&$X.X@+*t%:>",
"                                                                                                                                    ,%,wdyysyXX=fayuyauyerrytttdy;<8;$XXO@@*t:%>",
"                                                                                                                                    ,:%tjpwpd&X+dfpdasduttyypyua3*39=+Xo@+@$t%:>",
"                                                                                                                                    ,,%try6tsqX+dhsljhhday46tupt;<6<@X.+@O@@t%:>",
"                                                                                                                                    ,%%t&;4wpp+ophdddgjjfu*&6tt6*<4*oX.@@o&&t%%>",
"                                                                                                                                    >,:w$#;60u@X3yuwtgxclt$@8t83*$*+oX.oo@&&t%:>",
"                                                                                                                                    ,,:t$+@=<6@Xo&0tyklzh=OO60tq*@Oo..oO@*==t::>",
"                                                                                                                                    ,%%w$@@@*6=@o$8ipljka4+O30y8*+o..o+@&&&&t::>",
"                                                                                                                                    ,,%t;&@+@$86*36dpdgdq;$@&0w=@@ooo@*===&&t%:>",
"                                                                                                                                    ,%%t4;4*@+@0w86akhsq4&@+@*=@@+o+@*&&*3<=t%%>",
"                                                                                                                                    >::t&36&$@o*t08tpjd86*@O+@&$@+O@=&@@@&&&t%:>",
"                                                                                                                                    ,,:w&4==$@@@886iq0t4*&@OOOOO+&&=;**&$@@@t%:>",
"                                                                                                                                    ,::t@@*==3ytq63333qt;**$@&=@&<;<43;=;6*+t%:-",
"                                                                                                                                    ,::e@o$==8ay843=*&<tw3;&*=6&&&@@@$@@@&&Ot::;",
"                                                                                                                                    ,::tetetrrrrtttwwtwttttwwtwtttttwttteeete::,",
"                                                                                                                                    ,::%::::::::%%%%,%::%%::,%::%%:%:%%%::::::%-",
"                                                                                                                                    ,::>:>::::1::-,:%%,:,:,:%%,:-:,%,%,::>:::::-",
"                                                                                                                                     >,,>,111111,,,,,,,,,,>,,,,,>,,,>,,,,,111>, ",
"                                                                                                                                                                                ",
"                                                                                                                                                                                ",
"                                                                           52                                                                                                   ",
"                                                                           71                                                                                                   ",
"                                                                           51                                                    555222222222222222222522225555                 ",
"                                                                       2121111121122121111121122211121111121112111111111111111111111111111121111111111111111111125              ",
"                                                                       2111221111111111211111112111111211111111111111111111111115577777777577979777777797777552111127           ",
"                                                                       21799999999999999999999999999999999999999999999999999999999999999999999999999999999999999111,115         ",
"                                                                       2115599999999999999999999999999999999999999999999999999999999999999999999999999999999999999911115        ",
"                                                                       511111199999999999999999999999999999999999999999999999999999999999999999999999999999999999999971115      ",
"                                                                          55119999999999999999999999999999999999999999999999999999999999999999999999999999999999999999721115    ",
"                                                                          111199999999999999999999999999999999999999999999999999999999999999999999999999999999999999999921117   ",
"                                                                         5111299999999999999999999999999999995777777777797777777999999999999999999999999999999999999999999715   ",
"                                                                        51127999999999999999999999999999999911111111211111111112112222255555225579999999999999999999999999711   ",
"                                                                          211111999999999999999999999999999715555252225225252522211111111111111117999999999999999999999991111   ",
"                                                                          52111122555225551555555255555552111                    57755575555557711279999111111299999999991117   ",
"                                                                           7552111111111111111111211111111125                                   2112222111111111199999999112    ",
"                                                                                577  7575555575555575555557                                       57111117   52111999999715     ",
"                                                                                                                                                    25117     5111999999712     ",
"                                                                                                                                                      211     7511299999712     ",
"                                                                                                                                                       522    5511199999712     ",
"                                                                                                                                                         212121111129999912     ",
"                                                                                                                                                                521129999112    ",
"                                                                                                                                                                  21159991115   ",
"                                                                                                                                                                   1119992112   ",
"                                                                                                                                                                   21119999112  ",
"                                                                                                                                                                    51199992115 ",
"                                                                                                                                                                    51199999112 ",
"                                                                                                                                                                     11999992115",
"                                                                                                                                                                     11299999112",
"                                                                                                                                                                     21199999211",
"                                                                                                                                                                      2129999112",
"                                                                                                                                                                       217999115",
"                                                                                                                                                                       21921115 ",
"                                                                                                                                                                       1111125  ",
"                                                                                                                                                                       111122   "
};
