/* XPM */
static char *_df7000a5add4cc6f2210823f9eafec50FU9EvvQr19T7tHc[] = {
/* columns rows colors chars-per-pixel */
"64 64 203 2 ",
"   c None",
".  c #18300F",
"X  c #1C2417",
"o  c #1D2419",
"O  c #1E2C18",
"+  c #182B13",
"@  c #1B3312",
"#  c #1E3A12",
"$  c #222C1C",
"%  c #24341C",
"&  c #24391C",
"*  c #232921",
"=  c #2A2F29",
"-  c #2C362B",
";  c #2B3626",
":  c #313E29",
">  c #323531",
",  c #383D37",
"<  c #274A1B",
"1  c #2A4C1B",
"2  c #274518",
"3  c #2A511B",
"4  c #275D19",
"5  c #295A1B",
"6  c #335A1B",
"7  c #2E6B1E",
"8  c #2B631C",
"9  c #35661A",
"0  c #32721F",
"q  c #2D4822",
"w  c #334928",
"e  c #375E24",
"r  c #3C5D2D",
"t  c #3B572D",
"y  c #3B4339",
"u  c #3C4C37",
"i  c #3E523A",
"p  c #3D6D25",
"a  c #3F7A23",
"s  c #3E6130",
"d  c #41513F",
"f  c #435D38",
"g  c #467F2E",
"h  c #416331",
"j  c #4A7333",
"k  c #454A45",
"l  c #4B4C4B",
"z  c #434643",
"x  c #455344",
"c  c #4E544C",
"v  c #4B5747",
"b  c #515F4B",
"n  c #525353",
"m  c #555853",
"M  c #5C5C5C",
"N  c #4F6445",
"B  c #5E784F",
"V  c #566253",
"C  c #5A6A56",
"Z  c #677B5C",
"A  c #646564",
"S  c #6C6C6C",
"D  c #6F7F6A",
"F  c #737574",
"G  c #747972",
"H  c #777978",
"J  c #7B7C7B",
"K  c #787D77",
"L  c #3A881B",
"P  c #3C9A1C",
"I  c #3BA31B",
"U  c #3DAF1E",
"Y  c #39B618",
"T  c #3EAB22",
"R  c #408C23",
"E  c #479C2A",
"W  c #4D8834",
"Q  c #51843C",
"!  c #45AE28",
"~  c #4CA631",
"^  c #3CD90E",
"/  c #3FC51B",
"(  c #34C40A",
")  c #41CC1B",
"_  c #4BDC1B",
"`  c #4DD90D",
"'  c #5FED0D",
"]  c #4FE516",
"[  c #50E11B",
"{  c #57EC14",
"}  c #57F214",
"|  c #63EE0E",
" . c #63EE14",
".. c #6CEE14",
"X. c #68E716",
"o. c #7AEE14",
"O. c #75EE13",
"+. c #67F214",
"@. c #49C925",
"#. c #52CF2E",
"$. c #5FDB2E",
"%. c #56C339",
"&. c #4CD524",
"*. c #5DE22A",
"=. c #69E92E",
"-. c #61E232",
";. c #73E935",
":. c #74F029",
">. c #5A8943",
",. c #5CB743",
"<. c #5CA744",
"1. c #74AC5D",
"2. c #6BB553",
"3. c #6F8366",
"4. c #7D9A6C",
"5. c #7E946F",
"6. c #7E817F",
"7. c #7D9370",
"8. c #75896A",
"9. c #7BB666",
"0. c #6ADD4A",
"q. c #65D846",
"w. c #6BCD54",
"e. c #6FD252",
"r. c #70D154",
"t. c #75EB45",
"y. c #7BCB65",
"u. c #7FD46A",
"i. c #7BD566",
"p. c #7CE062",
"a. c #84EE13",
"s. c #8DEE12",
"d. c #9AEE11",
"f. c #97EE10",
"g. c #ABEE0F",
"h. c #B4EE0E",
"j. c #BAEE0E",
"k. c #A4EE10",
"l. c #C2EE0D",
"z. c #CCEE0C",
"x. c #D1EE0B",
"c. c #829775",
"v. c #81A86E",
"b. c #84B26F",
"n. c #90AB7E",
"m. c #8DB578",
"M. c #85DF5B",
"N. c #81EA43",
"B. c #84ED5C",
"V. c #89E751",
"C. c #84F055",
"Z. c #81D76D",
"A. c #82DC66",
"S. c #8BC879",
"D. c #87DA73",
"F. c #90DF7C",
"G. c #80C56A",
"H. c #8DE575",
"J. c #89EA62",
"K. c #858D83",
"L. c #878B8C",
"P. c #919D8D",
"I. c #8A9196",
"U. c #939494",
"Y. c #969D94",
"T. c #9C9D9C",
"R. c #889384",
"E. c #98A592",
"W. c #9FA19E",
"Q. c #9CAB95",
"!. c #93A38C",
"~. c #A1A69F",
"^. c #A6BE9B",
"/. c #999EA5",
"(. c #A3A4A2",
"). c #A6ABA4",
"_. c #AAACAA",
"`. c #AFB0AF",
"'. c #B2B2B1",
"]. c #B4BDB1",
"[. c #B1BBAB",
"{. c #8ED581",
"}. c #94D885",
"|. c #ABDF9E",
" X c #AAE39D",
".X c #AEDBA1",
"XX c #B7D6AC",
"oX c #BAC4B5",
"OX c #AEE0A1",
"+X c #B2ECA4",
"@X c #B6EBAB",
"#X c #BDE8B4",
"$X c #C4CEBF",
"%X c #C6DDBD",
"&X c #C6D5BD",
"*X c #C3E3B9",
"=X c #C9D6C1",
"-X c #CADCC3",
";X c #CAD6C5",
":X c #D1D7CD",
">X c #DAE6D6",
",X c #CBE8C2",
"<X c #E2EEDC",
/* pixels */
"                                                                                                                                ",
"                                                                                                                                ",
"                                                                                                                                ",
"                                                                                                                                ",
"                                                                                                                                ",
"                                                                                                                                ",
"                                                                                                                                ",
"                                                                                                                                ",
"                                                                                                                                ",
"                                                                                                                                ",
"                                                                                                                                ",
"                                                                                                                                ",
"                                                                                                                                ",
"                                                                                                                                ",
"                                                                                                                                ",
"                                                                                                                                ",
"                                                                                                                                ",
"                                                                                                                                ",
"                                                                                                                                ",
"                                                                                                                                ",
"                                                    W.`.).~.I.L.I./.).'.).                                                      ",
"                                                  '.W.R.P.E.!.E.Q.E.!.Y.(.`.                                                    ",
"                                              T._.K.R.[.=X=X%X-X-X-X=XoX).Y._.W.                                                ",
"                                            T.(.K.W.$X=X%X%X*X*X*X%X%X=X=X].Y._.T.                                              ",
"                                          T.W.i 3.:X:XXX.X|.|.|.OXOX|.XX=X>XE.V T.T.                                            ",
"                                          (.c i B ^.>X*X#X@X@X+X+X+X*X,X<X&Xc.C V (.                                            ",
"                                        T.K v 8.4.1.{.D.p.B.C.C.C.B.H.F.}.1.!.c.f F (.                                          ",
"                                        Y.V 3.4.9.S.w.( ` | |  .' } B.H.A.G.m.4.Z c Y.                                          ",
"                                      U.K V 7.4.y.}.Z.` ..O.o.s.a...:.t.p.Z.S.v.c.b K U.                                        ",
"                                      U.V N 4.9.y.D.M.X...o.k.h.j.d... .-.q.G.v.4.N m U.                                        ",
"                                      L.x r Q <.y.F.V.....d.j.l.j.h.a.| =.0.u.9.>.t v L.                                        ",
"                                      J d s W ~ w.Z.N...o.g.l.x.z.j.d. .:.0.u.2.W r d 6.                                        ",
"                                      F u h W ~ w.i.;...o.g.l.x.z.j.d...;.q.i.,.W f d K                                         ",
"                                      F d e g E ~ r.;.+.O.k.j.z.z.j.s.+.=.#.%.E g t k J                                         ",
"                                      J c q j R ! %.$.+...s.h.j.j.g.o.' *.@.! R p q m J                                         ",
"                                      J m 2 9 0 ! Y @.] +...a.k.k.o. .{ &.Y I a e w M F                                         ",
"                                      S A % 2 6 0 I / ^ ] } +.+.+.} } ^ @.I L 9 1 : S                                           ",
"                                        S , . 1 9 P ! Y / _ ] ] [ [ ^ Y T R 9 < @ y S                                           ",
"                                        A m + % 3 j e 6 8 7 0 0 p 7 8 5 3 r 6 # O M A                                           ",
"                                          M y + w : % 1 5 4 4 4 8 8 5 < % ; w @ y M                                             ",
"                                            M k * o $ % & < 3 3 < 5 q # O o * z M                                               ",
"                                              n , o o $ % % & & # O * * o o > n                                                 ",
"                                                l k > $ o o $ O O O O X = z l                                                   ",
"                                                  l l l , : - - - - > k l n                                                     ",
"                                                      l m n k z k l n l                                                         ",
"                                                                                                                                ",
"                                                                                                                                ",
"                                                                                                                                ",
"                                                                                                                                ",
"                                                                                                                                ",
"                                                                                                                                ",
"                                                                                                                                ",
"                                                                                                                                ",
"                                                                                                                                ",
"                                                                                                                                ",
"                                                                                                                                ",
"                                                                                                                                ",
"                                                                                                                                ",
"                                                                                                                                ",
"                                                                                                                                ",
"                                                                                                                                ",
"                                                                                                                                ",
"                                                                                                                                ",
"                                                                                                                                "
};
