/* XPM */
static char *f941d4b814e6478d92e65a86c1f40c98[] = {
/* columns rows colors chars-per-pixel */
"86 86 205 2 ",
"   c None",
".  c black",
"X  c #030000",
"o  c #000200",
"O  c #020202",
"+  c #030202",
"@  c gray1",
"#  c #060603",
"$  c gray2",
"%  c #060604",
"&  c #070707",
"*  c #090100",
"=  c #080807",
"-  c #090907",
";  c #060909",
":  c gray3",
">  c #090808",
",  c #090908",
"<  c #0B0B09",
"1  c gray4",
"2  c #0B0B0A",
"3  c #0B0B0B",
"4  c #0D0B0B",
"5  c #0E0E0B",
"6  c #080C0C",
"7  c #0B0C0C",
"8  c #0B0E0E",
"9  c gray5",
"0  c #0E0D0D",
"q  c #0F0D0D",
"w  c #0E0E0C",
"e  c gray6",
"r  c #100900",
"t  c #1B1300",
"y  c #10100F",
"u  c #14140E",
"i  c #0F1010",
"p  c #101010",
"a  c #101111",
"s  c #111313",
"d  c gray7",
"f  c #131313",
"g  c #101414",
"h  c #121414",
"j  c #151515",
"k  c gray9",
"l  c #141A1A",
"z  c #181818",
"x  c gray10",
"c  c #1B1B1B",
"v  c #1D1D1D",
"b  c gray12",
"n  c #221C03",
"m  c #211F1F",
"M  c #272008",
"N  c #282008",
"B  c #292008",
"V  c #2B2309",
"C  c #362A11",
"Z  c #382810",
"A  c #3E2E16",
"S  c #1D2121",
"D  c #1D2222",
"F  c #1F2424",
"G  c #202020",
"H  c #222020",
"J  c #222222",
"K  c #232222",
"L  c #242222",
"P  c #272323",
"I  c #232727",
"U  c gray14",
"Y  c #252525",
"T  c #272424",
"R  c #262524",
"E  c #262624",
"W  c #242626",
"Q  c #272727",
"!  c #282424",
"~  c #292925",
"^  c #292926",
"/  c #282827",
"(  c #252828",
")  c #242929",
"_  c #252929",
"`  c #262828",
"'  c #262929",
"]  c #252A2A",
"[  c #262A2A",
"{  c #262C2C",
"}  c #272C2C",
"|  c #282828",
" . c #282928",
".. c #282929",
"X. c #282B2B",
"o. c #2A2A2A",
"O. c #2A2B2B",
"+. c #282C2C",
"@. c #2A2D2D",
"#. c #2B2D2D",
"$. c #2A2E2D",
"%. c #282E2E",
"&. c #2A2E2E",
"*. c #2B2E2E",
"=. c #2C2C2C",
"-. c #2C2D2D",
";. c #2D2D2D",
":. c #2C2E2E",
">. c #2D2E2E",
",. c #2F2F2F",
"<. c gray19",
"1. c #323232",
"2. c #343434",
"3. c #353535",
"4. c #373737",
"5. c #393939",
"6. c #3A3A3A",
"7. c #383C3C",
"8. c #3C3C3C",
"9. c gray24",
"0. c #3F3F3F",
"q. c #493519",
"w. c #503C24",
"e. c #564222",
"r. c #5F4226",
"t. c #654929",
"y. c #755032",
"u. c #765232",
"i. c #775134",
"p. c #3F4242",
"a. c #3E4343",
"s. c #3F4343",
"d. c #3E4444",
"f. c #414141",
"g. c gray26",
"h. c #424545",
"j. c #434545",
"k. c #414646",
"l. c #424646",
"z. c #424747",
"x. c #444444",
"c. c gray27",
"v. c #454646",
"b. c gray28",
"n. c #474848",
"m. c #464B4B",
"M. c #494949",
"N. c #4C4C4C",
"B. c gray30",
"V. c #4D4E4E",
"C. c gray31",
"Z. c #4F5050",
"A. c #515151",
"S. c #515252",
"D. c gray32",
"F. c gray33",
"G. c #545555",
"H. c #545757",
"J. c #565757",
"K. c gray36",
"L. c #5C5D5D",
"P. c gray37",
"I. c #5F5F5F",
"U. c gray38",
"Y. c #626262",
"T. c #626565",
"R. c #626666",
"E. c #646464",
"W. c #646565",
"Q. c #646767",
"!. c #656767",
"~. c gray40",
"^. c #666767",
"/. c #676767",
"(. c #656868",
"). c #676868",
"_. c #676A6A",
"`. c DimGray",
"'. c #686A6A",
"]. c #696A6A",
"[. c gray42",
"{. c #6A6C6C",
"}. c #6B6C6C",
"|. c #6A6D6D",
" X c #6C6D6D",
".X c #6D7070",
"XX c #875F3B",
"oX c #926642",
"OX c #9D6D49",
"+X c #A97951",
"@X c #B98159",
"#X c #C58D61",
"$X c #D09468",
"%X c #DC9A6C",
"&X c #DC9C70",
"*X c #E09E70",
"=X c #EBA573",
"-X c #EDA979",
";X c #888989",
":X c #FDB181",
">X c #FFB888",
",X c #FFC595",
"<X c #FFD2A2",
"1X c #FFDEAE",
"2X c #FFEBBB",
/* pixels */
"                                                                                                                                                                            ",
"                                                                                                                                                                            ",
"                                                                                                                                                                            ",
"                                                                                                                                                                            ",
"                                                                                                                                                                            ",
"                                                                                                                                                                            ",
"                                                                                                                                                                            ",
"                                                                                                                                                                            ",
"                                                                                                                                                                            ",
"                                                                                                                                                                            ",
"                                                                                                                                                                            ",
"                                                                                                                                                                            ",
"                                                                                                                                                                            ",
"                                                                                                                                                                            ",
"                                                                                                                                                                            ",
"                                                                                                                                                                            ",
"                                                                                                                                                                            ",
"                                                                                                                                                                            ",
"                                                                                                                                                                            ",
"                                                                                                                                                                            ",
"                                                                                                                                                                            ",
"                                                                                                                                                                            ",
"                                                                                                                                                                            ",
"                                                                                                                                                                            ",
"                                                                                                                                                                            ",
"                                                                                                                                                                            ",
"                                                                                        D 7.                                                                                ",
"                                                                                        g .                                                                                 ",
"                                                                                        8 8                                                                                 ",
"                                                                                      ).. . R.                                                                              ",
"                                                                                  m.H.P.. . ;X!.k.                                                                          ",
"                                                                                k.b.b.<.p p 4.0.v.s.                                                                        ",
"                                                                              k.v.v.x.x.j j C.0.w.d.d.                                                                      ",
"                                                                              g.<.4.6.8.f k 4.8.3.3.m.                                                                      ",
"                                                                            d.+.P :.2.2.v v 2.,.,.=.%.d.                                                                    ",
"                                                                            [ ! O.U :.O.v v =.,.X.X.X.%.                                                                    ",
"                                                                        [ I U U U O.H O.H O.U U =.| W W ,.%.                                                                ",
"                                                                      +.[ 0.U . U U U U U U U O.| T O ..6.,.%.                                                              ",
"                                                                    [ :.0.O.. . . e p e p e e p p O O O ,.4.%.%.                                                            ",
"                                                                    [ <.0.,.. . . $ e 3 $ 3 e p 3 O . . ,.6.2.%.                                                            ",
"                                                                    +.2.0.:.. . . . e . . . 3 $ e . . . ;.9.<.+.                                                            ",
"                                                                  +.+.0.6.p . . . 3 3 . . . $ 3 p . . . k 6.9.:.%.                                                          ",
"                                                                  :.:.8.<.j c . c p 3 . . . 3 p p j . c f 2.0.:.+.                                                          ",
"                                                                  +.,.8.<.p e c 3 p e . . . 3 $ j p m p j <.0.<.:.                                                          ",
"                                                                +.+.<.0.,.y 4 . 3 p p c . c e e y 3 $ 3 p <.g.<.+.}                                                         ",
"                                                                O.,.g.v.:.4 . . . 3 p 3 c e p j : . . . e <.x.g.<.+.                                                        ",
"                                                              +.:.<.v.A.O.& . . . 3 e 3 . 3 $ p p . . . 4 2.C.c.<.:.}                                                       ",
"                                                      OXoXoXoXO.,.4.v.A.=.4 . . . 3 e . . . 3 p p . . . 4 =.B.g.6.<.[                                                       ",
"                                                OX#X$X@XOXZ . p ,.<.0.4.j p . . . 3 3 . . . $ e p . . . 3 j <.g.4.:.f . XXe.                                                ",
"                                          OX#X>X>X$X+XoXe.. e j :.<.6.,.e e c . v p $ . . . 3 3 e c . c e p :.4.0.,.U y . q.N                                               ",
"                                    oX+X$X>X>X$X@XXXu.e.N . p ! =.8.,.f e e p c p e 3 . . . 3 e e e c 3 p p p 4.8.<.:.p . t t q.                                            ",
"                                XX+X#X#X@XOXXXXXu.e.N N N . p =.:.8.O.p 3 . 3 p e e e c . c 3 e p e 3 . 3 p p <.8.4.,.P p & t t                                             ",
"                            e.XX+XOXOXXXXX+X@X#X+XXXq.N . 3 ! :.8.=.k 4 . . . 3 e p 3 3 c e p e 3 e . . . p j j 1.d.:.U H 3 $ e.oXt.                                        ",
"                          Z t.oXXXXX+X@X&X:X,X,X$X+Xe.Z . $ =.2.8.=.p e . . . 3 e $ e 3 $ 3 p e p 3 . . . 3 j j %.w.2.:.I 3 . Z u.XX                                        ",
"                          Z q.t.u.+X#X-X>X<X1X,X&X+Xe.. $ y :.,.8.O.e $ . . . e j p 3 . . . e e e 3 . . . e p p %.7.<.<.U H 5 t q.u.q.                                      ",
"                        N Z Z q.XXOX@X&X>X,X<X,X$XOXZ . y O.:.8.,.p 3 3 . . . e e p e . . . e e e 3 . . . e p p g 1.0.<.:.P y & Z q.q.                                      ",
"                        N t Z e.oXOX@X$X-X>X,X>X#XXX. 5 j ! ,.O.=.y p 4 . . . p `.`.).Z.Z.Z.Z.V.W z . . . p f p a X.8.;.=.| e O t Z q.q.                                    ",
"                        t t Z t.oXOX@X$X-X-X>X>X@Xe.. e P O.,.,.p f p p c . H |.A.[.).).R.).Y.P.Y.,.H . x f $ p p j ,.,.1.=.i O r N Z q.                                    ",
"                        t t q.u.OX+X@X#X&X-X>X>X+X. 3 y U :.0.:.j f f f g H ).V.Y.!.`.. . . ).).).Y...J f j f f j : d 8.4.1.U 4 . t N Z                                     ",
"                      q.t t q.u.OX+X@X#X$X-X>X-Xe.. i P O.g.:.j j j j 4 j p (.Z.Y.!.3 . . . p `.).Y...f : f f $ d p d ,.j.,.,.U = . t N                                     ",
"                      q.t t e.u.OX+X@X#X$X-X:X@X. . p O.0.W c j j p i p j j .XZ.P.p e c . v f p  XE...f e f j j j f f f 0.B.,.| 8 . t t                                     ",
"                      N t t t.u.OX+X@X#X$X-X>Xe.. 3 U :.A.! U c c j j p j c ).G.U.z z c U v f z ).Y.:.z j j j f j j z x U F.f.Q H & . t A                                   ",
"                      t t N u.u.OX+X@X#X$X-X@X. . y :.V.| ,.P U H I P P v P R.H.Y.U H U U U L | `.U.;.U G U U U U J b U ,.| P.,.U e . u.u.A                                 ",
"                    q.N Z q.XXXXoX+X@X#X$X@Xe.. 4 y V.P :.<.<.,.:.:.:.:.[ [ ).).Y.E.;.;.;.<.:.`.!.E.<.| Q <.<.<.<.,.o.,.,.,.o.D.<.e . u.OXu.c                               ",
"                    q.Z q.u.OX+X@X#X$X#X@XoX. & p <.M.R :.,.4.,.<.4.<.<.O.U |./.Y.Y.!.,.<.,./.E.U.I.=.! <.4.4.4.U 4.<.<.4.:.O.A.,.4 . N u.OXe.t                             ",
"                    q.Z u.OX+X@X#X&X&X@XoXe.. 8 f :.A.[ :.,.4.,.<.4.O.<.O.O.|.H.H.J.H. X`.`.H.H.H.C.O.P <.:.O.4.4.4.4.4.,.;.=.O.A.;.4 . q.XXu.A                             ",
"                    Z q.t.XXXXOX+X@X+XoXXX. . y P <.A.! ,.:.2.4.4.4.<.<.=.! `.`.I./.[.[./.E./.K.I.E.=.f ,.:.2.,.2.! <.=.4.<.;.=.A.,.y . N q.t.q.q.                          ",
"                    e.q.q.e.u.XXOXOXoXu.e.. H R :.A.H :.2.<.<.<.4.4.6.<.,.,.g <.,.,.,.=.,.:.O.:.=.=.f =.:.=.<.<.,.4.2.2.<.<.,.=.A.;.| y . Z q.t.q.                          ",
"                    u.XXXXoXOX+XOXXXXXu.. @ U <.Z.! =.:.,.O.,.,.<.<.<.:.,.O.O.p y f p j j c c g j f O.O.,.O.:.=.,.;.:.,.,.O.<.:.O.A.! O.U N N N q.q.                        ",
"                  t.XXOX+X@X@X+XOXu.t.q.j H U =.V.[ ! O.P U O.O.[ H U ! O.=.U U ! m D H H v b H G U U [ ! | | =.O.O.=.O.O.O.O.U H V.O.:.H f t t t Z                         ",
"                t.XXOX@X#X&X$X+XoXt.e.N . D / [ H H H v v v H H H I H H H H v v c D H H U H H v m H U H H m c m m v D H m v H H H D U O.U U * t t t                         ",
"                t.e.t.XXoXXXXXu.t.e.q.= m H H v j i e p f j j p i i e j p p p p p f p p f p f g p p j j p p p y p y y p p p p p p v H [ H ! & . t t                         ",
"                t.XXoXoXXXu.t.e.Z N N @ G c f p g p e e e $ y j p j p p p 8 p j j p e 3 e 3 e e j p e 3 p p j p j p p p e 3 p p j p f P U U U . t                           ",
"              t.XXOX+X@XOXoXXXt.q.Z N ! H f p p 3 e 3 : $ 3 3 e 3 3 4 e e y e e p e 3 3 $ 3 3 e 7 7 3 3 3 e 3 e 3 e 3 e 3 3 e 3 3 & e i m U :.:.t                           ",
"            t.XXoXXXu.u.u.e.e.q.q.Z n U H g y p 3 . . . . . . . . . . . . . . . . . . . . . . . . . . . . . . . . . . . . . . . . . 3 3 f c H [ t                           ",
"          t.XXu.t.e.q.q.q.q.q.q.Z N V U P f y f $ $ . . . . . . . . . . . . . . . . . . . . . . . . . . . . . . . . . . . . . . . . . 3 p j D U                             ",
"          t.t.e.t.u.u.t.e.q.q.q.q.Z V P D p D v e . . . . . . . @ @ . & . $ $ . . . . . $ $ . . . . 3 $ $ 3 $ $ . . . . . . $ . . . . . e p v [                             ",
"          t.t.OX@X#X@XOXXXu.e.e.e.w.C H P p D p $ . . . . . . . $ . @ . . . . . . . . $ . . . . . $ $ $ $ $ $ . $ . . . $ $ . . . . . . . j v [                             ",
"        t.XX@X#X@XOXXXu.u.t.e.e.q.q.N ! D j e e $ . . . . . . . . . . . $ . $ . . . . . . $ $ . . . 3 3 $ . $ $ $ $ $ $ . . . . . . . . . 3 v [                             ",
"      t.XX@X+XOXXXu.e.q.Z N Z Z Z N u U H i l 3 . . . . . . . . . $ . . $ . . $ $ . . $ . . . $ 3 . $ . . . . . . . . . $ $ . . . . . . . e H }                             ",
"      t.OX+XXXu.t.e.q.q.e.t.e.t.t.t.t.R H j p 3 . . . . . . . . . . . $ $ $ $ . . . . . . $ . 3 . $ 3 . . . . . . . . $ . . $ . . . . . . e I [                             ",
"      t.OXXXt.q.Z e.oXoXoXOXoXOXoXXXu.~ D j F $ . . . . . . . . $ . $ $ . . . . $ $ . . . . $ $ $ 3 $ $ $ . $ . . . . . . $ $ . . . . . . e v )                             ",
"      XXXXt.Z e.oX+X+X#X$X$X$X$X&X@Xy./ H g i $ . . . . . . . . . . $ $ $ . . . $ . . $ . $ . $ . . . . . $ $ . $ . . . . . . . . . . . . e v [                             ",
"      u.t.Z XX#X&X:X>X,X,X:X,X:X-X&X%XU H e 6 ; . . . . . . . . $ . . $ . . . $ $ $ $ . . $ 3 3 $ 3 $ $ . 3 $ $ . $ . . . . . . . . . . . e b [                             ",
"      u.Z u.#X-X>X1X<X,X1X,X1X,X:X-X*X=.H p e 3 3 . . . . . . . . . . $ . . . $ . 3 3 $ . $ $ $ $ $ . $ . 3 . $ $ . . . . . . . . . . . . y H [                             ",
"      Z u.#X>X2X2X>X,X,X1X1X1X1X,X:X=X+.H g e ; $ . . . . . . . . . . . $ . $ 3 . $ $ . . $ . 3 3 . . . 3 $ . . . . . . . . $ . . . . . . y H [                             "
};
