/* XPM */
static char *_6d7ab7c25874b21da7ef6e85c0a6c70[] = {
/* columns rows colors chars-per-pixel */
"64 64 250 2 ",
"   c #000000",
".  c #10173A",
"X  c #0A3936",
"o  c #2A2C3F",
"O  c #1B4C27",
"+  c #125331",
"@  c #224D2F",
"#  c #18673A",
"$  c #18733C",
"%  c #2D6033",
"&  c #14194B",
"*  c #151B4F",
"=  c #1A2354",
"-  c #0F2C4D",
";  c #2A2D43",
":  c #252D56",
">  c #2A3459",
",  c #2C304B",
"<  c #1C326E",
"1  c #2B3866",
"2  c #212E72",
"3  c #213274",
"4  c #22337B",
"5  c #273878",
"6  c #2D376D",
"7  c #0D4F51",
"8  c #235D48",
"9  c #1D6B46",
"0  c #1A6959",
"q  c #1E704D",
"w  c #266948",
"e  c #28754A",
"r  c #256657",
"t  c #277758",
"y  c #387B58",
"u  c #327A4E",
"i  c #164A69",
"p  c #135B62",
"a  c #135074",
"s  c #35446A",
"d  c #394878",
"f  c #3D557A",
"g  c #2A4F77",
"h  c #1D696E",
"j  c #267269",
"k  c #44547A",
"l  c #4D7875",
"z  c #417E5D",
"x  c #19873E",
"c  c #178C42",
"v  c #1B8C42",
"b  c #1C8747",
"n  c #179244",
"m  c #1A9445",
"M  c #1A9A47",
"N  c #1B9B4A",
"B  c #1B944A",
"V  c #1C9052",
"C  c #248C4B",
"Z  c #24924B",
"A  c #25954B",
"S  c #278A53",
"D  c #299656",
"F  c #34955A",
"G  c #348C5A",
"H  c #1DA349",
"J  c #24A64C",
"K  c #29A558",
"L  c #37A759",
"P  c #2B8468",
"I  c #3A9863",
"U  c #29887B",
"Y  c #25947B",
"T  c #30906A",
"R  c #3BA864",
"E  c #1B8E78",
"W  c #448F5C",
"Q  c #478767",
"!  c #56876C",
"~  c #459768",
"^  c #499B77",
"/  c #548D78",
"(  c #668B79",
")  c #749A69",
"_  c #56A577",
"`  c #48A86F",
"'  c #6AAE73",
"]  c #C7AF30",
"[  c #97A951",
"{  c #A7AB53",
"}  c #80996C",
"|  c #C0B147",
" . c #1C3D84",
".. c #2C3D81",
"X. c #1B4888",
"o. c #1C5489",
"O. c #195893",
"+. c #284586",
"@. c #384A86",
"#. c #285889",
"$. c #3A5788",
"%. c #285893",
"&. c #375E93",
"*. c #1D6A99",
"=. c #396788",
"-. c #27669A",
";. c #3D6896",
":. c #2C728D",
">. c #1D6FA1",
",. c #3677A8",
"<. c #465988",
"1. c #465E96",
"2. c #43698B",
"3. c #476B97",
"4. c #596D95",
"5. c #487695",
"6. c #537288",
"7. c #787B92",
"8. c #707A92",
"9. c #4878AA",
"0. c #5777A8",
"q. c #487DB1",
"w. c #5577AD",
"e. c #647CAC",
"r. c #389385",
"t. c #258397",
"y. c #378796",
"u. c #2A8D87",
"i. c #35A792",
"p. c #3C89B1",
"a. c #1E9380",
"s. c #498687",
"d. c #45988A",
"f. c #56988A",
"g. c #46889A",
"h. c #4B9595",
"j. c #559897",
"k. c #5E8B93",
"l. c #77888D",
"z. c #679686",
"x. c #798895",
"c. c #708D8E",
"v. c #5BA586",
"b. c #57B299",
"n. c #53AA8D",
"m. c #65A589",
"M. c #6AA398",
"N. c #70B395",
"B. c #5A98A9",
"V. c #4886B5",
"C. c #578AB7",
"Z. c #5993B8",
"A. c #4D8CAE",
"S. c #6989B5",
"D. c #738CB6",
"F. c #6897B7",
"G. c #7796BA",
"H. c #6C92A6",
"J. c #55B1A7",
"K. c #51ADAF",
"L. c #6AA5A7",
"P. c #7CAAAC",
"I. c #6DB9AA",
"U. c #77BAA8",
"Y. c #6AA7B8",
"T. c #66B7B7",
"R. c #75B9B5",
"E. c #70A1B3",
"W. c #389CC2",
"Q. c #3EA0C1",
"!. c #539AC0",
"~. c #6797C2",
"^. c #799CC3",
"/. c #57A8C5",
"(. c #53AFC3",
"). c #65AAC4",
"_. c #77A6C7",
"`. c #69B6C4",
"'. c #79B8C7",
"]. c #7AB6D5",
"[. c #86958A",
"{. c #8D9C92",
"}. c #869897",
"|. c #969C99",
" X c #8B8E91",
".X c #89A398",
"XX c #92A49F",
"oX c #A3A99A",
"OX c #86A9A8",
"+X c #99A6A4",
"@X c #88A7B8",
"#X c #98B6BA",
"$X c #92ADB2",
"%X c #A4A6A4",
"&X c #A8ABAA",
"*X c #A8B6B7",
"=X c #B5B8B7",
"-X c #A7AFAE",
";X c #859EBB",
":X c #B9CDB6",
">X c #87C2B9",
",X c #C8C8B8",
"<X c #CCD0BA",
"1X c #849DC3",
"2X c #88AAC9",
"3X c #96AECA",
"4X c #98B6C9",
"5X c #97B7D3",
"6X c #89B5C4",
"7X c #A4B9CB",
"8X c #A4BED3",
"9X c #B1B7C1",
"0X c #9AC5CA",
"qX c #97C2D1",
"wX c #ABC2C6",
"eX c #B9C6C9",
"rX c #A9C4D6",
"tX c #BACEDC",
"yX c #B5C9D5",
"uX c #BED2D9",
"iX c #ACD0D7",
"pX c #BBD2E2",
"aX c #C7CAC7",
"sX c #D6D4C6",
"dX c #C4D4DC",
"fX c #CCD7DA",
"gX c #D4DCDD",
"hX c #DCDEDD",
"jX c #D5D6D8",
"kX c #CBD0C8",
"lX c #E2DECF",
"zX c #D8E1D8",
"xX c #E6E4DA",
"cX c #E7E2CF",
"vX c #CADAE3",
"bX c #D3DEE3",
"nX c #DADEE4",
"mX c #DBE2E3",
"MX c #D8E2E8",
"NX c #DDE9F2",
"BX c #E2E4E5",
"VX c #E4EAEA",
"CX c #EBEDED",
"ZX c #E5E7E6",
"AX c #F2F2EF",
"SX c #EDF1F2",
"DX c #F3F4F4",
"FX c #FAFBFB",
"GX c #F5F8F8",
"HX c #ECEDE8",
/* pixels */
"                                                                                                                                ",
"                                                                                                                                ",
"                                    BXBXxXBXhXBXxXjXsXaX=X=X=X=X=X=XaXsXlXHXDXDXAXAXCXBXBXZX                                    ",
"                                  BX%X=XsXkXsXsXaX,XoX X|. X%X&X-X&X%X%X=XxXxXZXxXlXjX,X&X%XHX                                  ",
"                                  CX7.7.yXnXnXnXhXjX9X=X=X%X&X%X%X%X%X&X&X&X=X&X&X%X|. X7.7.CX                                  ",
"                                BXBX@.2 w.e.D.S.e.4.1.d 6 , , , ; o ; ; , , s 6 5 5 2 2 1 k jXSX                                ",
"                                BXaX2 ..e.D.1XD.e.e.e.@.<.: = > . . o : . = @.5  .2 5 2 3 g 9XSX                                ",
"                                jX%X2 1.D.D.~.^.^.e.w.@.d : s 6 . k 1 & & : 6 ..<.4 @.3 3 5 7.nX                                ",
"                                jX7.2 4.D.1X2XS.1X1Xe.@.d , s 1 & ; . > ; * 2 ....+...4 3 4 6.jX                                ",
"                                jX2 5 1X1X^.^.S.1X~.e.<.1 1 1 d k 1 : . s & d 4 @.+.4 2 2 5 d jX                                ",
"                                eX= 1.D.1X^.^.3X3Xe.S.e.<.4.H.d 6.4.<.e.e.6 <... .X. .4 2 2 4 9X                                ",
"                                7.* 0.S.~.2X^.3X1X1X4.8.<.k d 8.<.k k 1 6 6 2  . .+.+.4 2 2 g x.                                ",
"                                7.& ;.C.C.F.Z.F.e.3.4.x.$.d =.<.d 2.&.;.3.#.+. ...3XeX5 2 2 < c.                                ",
"                                7.& %.C.V.C._.A.C.#.6.2.#.k.3.=.g =.;.#.+. . . .D.jXkX$.2 < g x.                                ",
"                                7.* -.V.V.Z.C.A.B.5.k k.5.5.2.5.;.#.#.%.X.X.X.X.9XD.kX2.< < i x.                                ",
"                                7.& -.Z.Z._.Z.).fXOX6.2.=.=.o.#.+.o.o.;.;.O.X.9.7X&.kX$.a < i c.                                ",
"                                7.& %.!.W.~.!._.6XL.f k.5.H.#.o.o.o.O.S.3Xo.3.D.dX%.yXa #.g a x.                                ",
"                                7.& -.W.!././._.@XE.6.#Xj.:.g.5./ :.O.F.fXA.rX;XjX0.#Xo.=.=.i x.                                ",
"                                7.& >.p./.].K.2XiXwXk $XG.H.s.{ { } -.@XjXfX3X@XjX9Xe.a 5.g a }.                                ",
"                                x.* >.!.).)./.`.qX$XOX#X#Xg.) ] ] { :.7XgXgXS.G.gXgX3.a H.h p x.                                ",
"                                8.= >.W././.'./.6XiX#XL.@Xu.{ ] ] [ 5.yXgXgX7Xw.gXjX*XH.+Xa 7 x.                                ",
"                                8.= >.W.(.`.'.'.wXwX*XeX*Xf.{ ] ] ) B.bXmXgXgXw.yXjXaXaXH.a i x.                                ",
"                                l.- t.Q./.`.`.`.6X#XeXE.L.M.' ] [ s.7X8X7XmXhX3XD.lXkXeXo.a i  X                                ",
"                                H.- >.(.(.`.`.R.K.L.#XOXP.L.r._ r.D.7XS.w.nXbXvX;.3XaXH.a p p }.                                ",
"                                x.- t.Q.(.`.>X0XT.iXOXuXh.g.h.j.p.dXrX9.9.4XmXgX@XO.-.o.h p p }.                                ",
"                                l.- t.K.(.(.`.R.T.h./ wX:XwX#XH.wXhXmXF.y.w.mXhXgX,.-.:.p p h x.                                ",
"                                k.- t.K.(.T.T.T.T.J.s.P.eX$XF.Z.3XmXmXyXg.p.3XmXzXyXj j h p r }.                                ",
"                                c.7 a.K.T.T.T.K.J.L.d.OXL.#X4XmX4XvXmXmX7Xu.q.gXmXA.:.j 0 0 r XX                                ",
"                                x.7 u.K.J.R.T.K.h.L.f.j.j.g.tXmXdX8XBXmXgXg.p.6XrX>.j j 0 0 r XX                                ",
"                                c.+ u.J.T.R.T.J.i.r.f.j.B.5XfXgXC.V.dXmXmXyXu.q.p.:.P j t 0 r +X                                ",
"                                l.X u.K.I.R.I.J.i.a.r.R.6XMXmXtXV.C.3XmXmXgXY.,.,.U P j 0 0 r XX                                ",
"                                l.+ E J.I.R.I.J.i.a.Y '.vXVXVXtXF.@XC.dXmXmXvXZ.y.U S t t 0 r |.                                ",
"                                z.7 Y b.I.U.I.b.i.a.Y ~.rXVXVXvXE.#XF._.mXmX_.A.f.^ t t t 0 0 .X                                ",
"                                .X9 T b.I.U.N.b.i.Y u.V.C.uXZXBX4Xj.@X~.8XtXp.h.M.z.P y t q e +X                                ",
"                                .X+ Y b.U.U.I.b.n.6XvXtX_.^.VXmXgXB.v.E.!.Z.Z.M.z.^ G l t t 0 +X                                ",
"                                c.+ ` iX>XU.N.n.T.VXSXVXMX_.rXBXmXwXd.v.A.p.OX*X$X^ / Q y q l *X                                ",
"                                [.+ yXFXvXN.N.J.qXVXvXSXVXdX_.mXmXmX0Xh.d.h.$X*XOX.X.XG e t x.*X                                ",
"                                l.w BXFXNXU.b.0XMXrX~.VXCXMX~.yXZXmXtXd.^ ^ N.m.v.-X( ( Q l x.%X                                ",
"                                [.l NX].].R.R.SXGX8XV.5XVXVX5XF.mXMX~.p.K D ^ ` M.z.+X( y l l.$X                                ",
"                                .Xk.pX^.].R.rXGXDXNXr._.vXVXtXq.rX2Xp.Y N D v.~ m.*X}.( u k.6.+X                                ",
"                                {.z.pXn.N.U.T.vXSXSXR.F.dXVXdXg.p.V.Y N N N V v.^ M.%Xl.( k.l -X                                ",
"                                [.k.VXU.n.n.R._.GXSXbXC.vXVXbXr.,.y.A N M N N R I OX! ( ( c.|.,X                                ",
"                                [.s.FXFXSXNX0X).pXSXCX8XMXZXvXr.D V M M N B N A ^ z..X! ! l |.,X                                ",
"                                [.j VXFXFXFXFXbX_.DXCXVXVXAXbXr.B n n M n M M m ~ ~ ~ ! ( 2.{.aX                                ",
"                                {.0 pXFXFXFXFXGX5XMXCXCXtX!.,.j c n n n n B m n I N.Q z z h l.eX                                ",
"                                {.0 F.NXFXFXGXDXNX5XSXNXvX!.q.U c c n n n n n B G W ! y u r @.*X                                ",
"                                [.# y.~.2X5XvXGXDX2XbXVXZX3XU V c c n n n n B I ~ ~ y ! y y s +X                                ",
"                                [.# T Z.~.~.~.bXGXrX2XCXCXnXf.v c c c n n n B D I Q y y y w w +X                                ",
"                                [.+ H K ` n.L.qXGXpXC.vXVXVXdXh.b x c c c c D F G Q Q z w u 8 +X                                ",
"                                [.+ B J J J L rXSXpXh.^.mXVXmXE.V c c c c v C I ~ W u G # w 8 &X                                ",
"                                {.# D L.L K ^ MXSX8XT V.3XVX4X9.t c x c C C C ~ G G e e 9 w 8 eX                                ",
"                                [.+ V 0XiXL.dXGXDX_.V s.S.uXV.:.b c v x b ~ S S ~ G e e # w r 9X                                ",
"                                [.O A F.FXGXDXDXVXV.B D y.q.,.S c x c C ~ F C S S S w $ ! # 8 -X                                ",
"                                [.O N j.MXGXDXGX2Xg.M n T 9.P x c c C S C C D C C G u u u $ % %X                                ",
"                                {.O N ` rXFXDX2Xq.T H n C T C Z Z A ~ _ Z _ F _ F b $ e # # O %X                                ",
"                                {.O m J E.5X~.C.h.N H M M M Z A ~ F I _ ` m.~ ' ^ ~ y u e # X %X                                ",
"                                {.@ x H j.Z.B.f.H H J A M v v F B D F ' W ` _ ~ _ S u u u # X oX                                ",
"                                ,X% x H K n.` J L J A _ L L A A F A _ F D ~ x ~ x C u # w # @ aX                                ",
"                                CX-XQ R J J J J J M A J A v v L F A C A A F M Z $ $ $ % w @  XHX                                ",
"                                  AX:Xc..XN.' ` R L A F F A v J A v v F F A F F W W ! ( z |.AXFX                                ",
"                                  FXAXBX<X<X<X<XsXlX<XkX:X:X:X:X:X:X<X<X<X<X<XoXoX|.{.oXjXAXFX                                  ",
"                                    DXDXDXAXHXHXcXcXcXlXlXsX<XsXsXsX<X<X<X,X<X<X,X,X<XHXDXDX                                    ",
"                                                                                                                                ",
"                                                                                                                                "
};
