/* XPM */
static char *_b9003a9879246ce8b2c562e93fd06b3V4wo3LCDufpqfPLM[] = {
/* columns rows colors chars-per-pixel */
"64 64 116 2 ",
"   c None",
".  c #343434",
"X  c gray21",
"o  c #373737",
"O  c gray22",
"+  c #393939",
"@  c #3A3A3A",
"#  c gray23",
"$  c #3C3C3C",
"%  c gray24",
"&  c #3E3E3E",
"*  c #3F3F3F",
"=  c gray25",
"-  c #414141",
";  c gray26",
":  c #434343",
">  c #444444",
",  c gray27",
"<  c #464646",
"1  c gray28",
"2  c #484848",
"3  c #494949",
"4  c #4C4C4C",
"5  c gray30",
"6  c #4E4F4F",
"7  c #505050",
"8  c #515151",
"9  c gray32",
"0  c #535353",
"q  c gray33",
"w  c #555555",
"e  c #565656",
"r  c gray34",
"t  c #585858",
"y  c #5A5A5A",
"u  c #5B5B5B",
"i  c gray36",
"p  c gray37",
"a  c #5F5F5F",
"s  c gray38",
"d  c #606666",
"f  c gray46",
"g  c #9E1B0A",
"h  c #9F1D0C",
"j  c #A12211",
"k  c #A22616",
"l  c #AE4031",
"z  c #AE4133",
"x  c #AF4335",
"c  c #B1493C",
"v  c #BA5D50",
"b  c #BD6357",
"n  c #C16C62",
"m  c #C06D62",
"M  c #C5796E",
"N  c #C67A70",
"B  c #808080",
"V  c #ACACAC",
"C  c #AEAEAE",
"Z  c gray71",
"A  c #B6B6B6",
"S  c #B9B9B9",
"D  c #BBBBBB",
"F  c gray75",
"G  c #D0938A",
"H  c #D0928B",
"J  c #D1958C",
"K  c #D1958D",
"L  c #D2958D",
"P  c #D29791",
"I  c #D59E96",
"U  c #DAAEA8",
"Y  c #DDB0AA",
"T  c #DAB1AC",
"R  c #E4C2BC",
"E  c gray76",
"W  c #C3C3C3",
"Q  c #C5C5C5",
"!  c gray79",
"~  c #CACACA",
"^  c #CBCBCB",
"/  c gray80",
"(  c #D0D0D0",
")  c gray82",
"_  c #D3D0D0",
"`  c gray84",
"'  c #D8D8D8",
"]  c #DCD8D8",
"[  c #EAD1CD",
"{  c #E6D5D3",
"}  c #E6D5D4",
"|  c #E5DFDE",
" . c #EDDAD8",
".. c #E2E2E2",
"X. c #E4E1E1",
"o. c #E4E3E2",
"O. c #E7E3E4",
"+. c #E4E4E4",
"@. c #E9E5E4",
"#. c #E8E7E7",
"$. c #EAE8E8",
"%. c #EAEAEA",
"&. c gray92",
"*. c #EFEFEE",
"=. c #EFEFEF",
"-. c #F7F0EF",
";. c gray94",
":. c #F1F1F1",
">. c #F4F4F4",
",. c #F6F8F9",
"<. c #F3FDFE",
"1. c #F8F8F8",
"2. c #FAF9F9",
"3. c gray98",
"4. c #FDFFFF",
"5. c white",
/* pixels */
"                                                                                                                                ",
"                                                                                                                                ",
"                                                                                                                                ",
"                                                                                                                                ",
"                                                                                                                                ",
"                                                                                                                                ",
"                                                                                                                                ",
"                                                                                                                                ",
"                                                                                                                                ",
"                                                                                                                                ",
"                                                                                                                                ",
"                                                                                                                                ",
"                                                                                                                                ",
"                                                                                                                                ",
"                                                                                                                                ",
"                                                                                                                                ",
"                                                                                                                                ",
"                                                                                                                                ",
"                                                                                                                                ",
"                                                                                                                                ",
"                                                                                                                                ",
"                                                                                                                                ",
"                                                                                                                                ",
"                                                                                                                                ",
"                                                                                                                                ",
"                                                                                                                                ",
"                                                                                                                                ",
"                                                                                                                                ",
"                                                                                                                                ",
"                                                                                                                                ",
"                                                                                                                                ",
"                                                                                                                                ",
"                                                                                                                                ",
"                                                                                                                                ",
"                                                                                                                                ",
"                                                                                                                                ",
"                                                                                                                                ",
"                                                                                                                                ",
"                                                                                                                                ",
"                                                                                                                                ",
"                                                                                                                                ",
"                                                                                                                                ",
"                                                                                                                                ",
"                                                                                                                                ",
"                                                                                                                                ",
"                                                                                                                                ",
"                                                  | o.o.] <.[ v h g n  .*.#.O.$.#.                                              ",
"                                              _ { U K G K I N l k j l M K P H K T {                                             ",
"                                            +.$.;.;.;.;.,.5.R m c x b U -.5.1.1.1.>.;.                                          ",
"                                          ) ' ) / / / E E ~ Q F A C C S ~ ) / E A D ..&.                                        ",
"                                          u w w 0 9 9 9 w w t w u i u u w 9 5 9 9 5 d B                                         ",
"                                          w w w 4 5 5 5 9 0 t t u u u w 9 9 9 9 4 5 9 a                                         ",
"                                            = = = = = : = = = : : : , = = = , = = = = = '                                       ",
"                                            = , = = : , : 4 2 5 9 5 , 4 , 4 , , = , = = s                                       ",
"                                            = % : : : % % = = , 4 , = = , = = , , , =   f                                       ",
"                                            = % # = = , , = = = = , , , = , , , = = =                                           ",
"                                            = % + + + = , = = = : , , = , = : = O O %                                           ",
"                                            % + + + + + = , % * * % % * , = + + + O %                                           ",
"                                            = % X X O + + + + % + % : = $ + + X X O *                                           ",
"                                            = + X X + + X + + + + + + + + X X + + X =                                           ",
"                                            = % X + X X X X + + X X X X X + X X + + =                                           ",
"                                            = = % X + + X O X X X X X X X X X X + * =                                           ",
"                                            = * * % % X X + + + % % % $ $ + + $ * % *                                           ",
"                                                                                                                                "
};
