/* XPM */
static char *_6be14d85fce4e69a271fad431650bd2B3PWGG8vb0iWffPs[] = {
/* columns rows colors chars-per-pixel */
"64 64 101 2 ",
"   c None",
".  c #343434",
"X  c gray21",
"o  c #373737",
"O  c gray22",
"+  c #393939",
"@  c #3A3A3A",
"#  c #3C3C3C",
"$  c gray24",
"%  c #3E3E3E",
"&  c gray25",
"*  c #414141",
"=  c gray26",
"-  c #434343",
";  c #444444",
":  c gray27",
">  c #464646",
",  c gray28",
"<  c #484848",
"1  c #494949",
"2  c #4B4B4B",
"3  c #4C4C4C",
"4  c gray30",
"5  c #505050",
"6  c #515151",
"7  c gray32",
"8  c gray33",
"9  c #565656",
"0  c gray34",
"q  c gray35",
"w  c #5A5A5A",
"e  c gray36",
"r  c gray37",
"t  c #5F5F5F",
"y  c #5E6464",
"u  c gray38",
"i  c gray39",
"p  c gray40",
"a  c #676767",
"s  c #6A6A6A",
"d  c #717171",
"f  c gray45",
"g  c #767676",
"h  c #777777",
"j  c #A32717",
"k  c #A62D1E",
"l  c #AE4133",
"z  c #B44F42",
"x  c #BA5D51",
"c  c #C4766C",
"v  c #808080",
"b  c gray51",
"n  c #8D8D8D",
"m  c #9B9B9B",
"M  c gray68",
"N  c #AFAFAF",
"B  c #B1B1B1",
"V  c #B2B2B2",
"C  c gray70",
"Z  c #B7B7B7",
"A  c gray72",
"S  c gray73",
"D  c #BCBCBC",
"F  c gray",
"G  c #CF9189",
"H  c #D09289",
"J  c #D29890",
"K  c #DAB3AE",
"L  c #DEB2AC",
"P  c #C0C0C0",
"I  c #C1C1C1",
"U  c gray77",
"Y  c #C5C5C5",
"T  c #C6C6C6",
"R  c #C8C8C8",
"E  c gray79",
"W  c #CBCBCB",
"Q  c gray80",
"!  c gray81",
"~  c gray82",
"^  c #D2D2D2",
"/  c LightGray",
"(  c #D7D7D7",
")  c #D8D8D8",
"_  c gray87",
"`  c #DFDFDF",
"'  c #EACFCC",
"]  c #E6D2D0",
"[  c gray88",
"{  c gray89",
"}  c gray90",
"|  c #E7E7E7",
" . c gray92",
".. c #EDEAEA",
"X. c #EEEEEE",
"o. c gray94",
"O. c #F4F4F4",
"+. c gray97",
"@. c #F9F4F3",
"#. c gray98",
"$. c #FBFBFB",
/* pixels */
"                                                                                                                                ",
"                                                                                                                                ",
"                                                                                                                                ",
"                                                                                                                                ",
"                                                                                                                                ",
"                                                                                                                                ",
"                                                                                                                                ",
"                                                                                                                                ",
"                                                                                                                                ",
"                                                                                                                                ",
"                                                                                                                                ",
"                                                                                                                                ",
"                                                                                                                                ",
"                                                                                                                                ",
"                                                                                                                                ",
"                                                                                                                                ",
"                                                                                                                                ",
"                                                                                                                                ",
"                                                                                                                                ",
"                                                                                                                                ",
"                                                                                                                                ",
"                                                                                                                                ",
"                                                                                                                                ",
"                                                                                                                                ",
"                                                                                                                                ",
"                                                                                                                                ",
"                                                                                                                                ",
"                                                                                                                                ",
"                                                                                                                                ",
"                                                                                                                                ",
"                                                                                                                                ",
"                                                                                                                                ",
"                                                                                                                                ",
"                                                                                                                                ",
"                                                                                                                                ",
"                                                                                                                                ",
"                                                                                                                                ",
"                                                                                                                                ",
"                                                                                                                                ",
"                                                                                                                                ",
"                                                                                                                                ",
"                                                                                                                                ",
"                                                                                                                                ",
"                                                                                                                                ",
"                                                                                                                                ",
"                                                                                                                                ",
"                                         .` ) ( `  . . . .X.' k j x #.` } } { { ) ~ W W                                         ",
"                                      X.}  .} }  ...K G G G c j j l H H H J ]  .} ` ( ~ Q Q                                     ",
"                                    o. .{ } X.}  .X.#.#.$.$.L z z c @.O.o.o.o.o.X. .} { } } }                                   ",
"                                   .{ Z S Y Q ~ P Z M M D Y Q Y P V V V S D P W Y P W Q Q Q ) ~                                 ",
"                                  v i 3 6 6 3 6 q q e e e p s h n p e e q q 9 9 9 6 6 6 9 9 9 q                                 ",
"                                  y 6 < 3 6 6 6 9 q q e e i i v m d q 9 9 9 q 9 6 6 3 3 3 6 9 q                                 ",
"                                    = = = ; = = = = ; ; 6 < < q g 3 = ; 6 ; = = = ; = = = = =                                   ",
"                                    ; ; ; ; ; < < ; < 6 < 6 $ < d $ = 6 < 6 < < ; ; = = = ; ;                                   ",
"                                    ; = ; ; = = = = ; < 9 3 6 = s O 6 3 6 < = $ = $ = = = $ =                                   ",
"                                    O = = ; ; ; ; ; ; ; ; 6 < 6 9 < 3 6 $ = = = = ; = = O $ $                                   ",
"                                    O O O = = ; ; ; ; ; ; ; ; ; ; < = = = = = = ; = O O O $ o                                   ",
"                                    o O O O O = = $ $ $ O O = < < < = = = = o = = $ O O $ O o                                   ",
"                                    o o O O O O $ = = O $ $ = O ; $ O = $ $ $ O o O o o o o o                                   ",
"                                    o o O O o o O O $ O O O O O O O O $ O O O O o o o o o o O                                   ",
"                                    o O O o o O O o o o o o O O O O O O O o O o o o o o o o o                                   ",
"                                    o o O o o o o o o o o o o o O O o O O o o o o o o o o o o                                   ",
"                                    O O o O O $ O $ O $ $ = ; = = = = $ $ $ o O O o o O o o o                                   ",
"                                                                                                                                "
};
