/* XPM */
static char *_9cb9a3eb2094efe85aad8e0bef45296[] = {
/* columns rows colors chars-per-pixel */
"331 37 62 1 ",
"  c None",
". c #1F1E14",
"X c #201E14",
"o c #222016",
"O c #252319",
"+ c #28261D",
"@ c #2A281F",
"# c #2D2B22",
"$ c #302E24",
"% c #323026",
"& c #34322A",
"* c #39382F",
"= c #3C3B32",
"- c #403E36",
"; c #434139",
": c #49473F",
"> c #4D4C44",
", c #504E48",
"< c #54524C",
"1 c #58564F",
"2 c #585651",
"3 c #5D5C55",
"4 c #5F5F5B",
"5 c #66655E",
"6 c #68665F",
"7 c #68685F",
"8 c #666663",
"9 c #686760",
"0 c #6B6A64",
"q c #6F6E69",
"w c #706F69",
"e c #74736C",
"r c #767671",
"t c #797771",
"y c #7C7B75",
"u c #7E7D78",
"i c #807D78",
"p c #84837D",
"a c #868680",
"s c #888782",
"d c #8C8B85",
"f c #8E8E89",
"g c #908F8A",
"h c #93928D",
"j c #969591",
"k c #999792",
"l c #9B9A95",
"z c #9D9D99",
"x c #A09F9B",
"c c #A2A19D",
"v c #A6A5A1",
"b c #A8A5A2",
"n c #A8A8A3",
"m c #B6B6B6",
"M c gray",
"N c #C6C6C6",
"B c #CACACA",
"V c #D5D5D5",
"C c #DFDFDF",
"Z c #E6E6E6",
"A c #F4F4F4",
"S c #FDFDFD",
/* pixels */
" lchhgdd++++.                                                                                                                                                                                                                                                                         SSVm                        ooXXyuyyphcz             ",
"   zhkhg++++..XX                                                                                                                                                                                                                                                                       SSZq                      .oXoouuuuzz               ",
"    hhjj++++..XX                                                                                                                                                                                                                                                                         SNj                   ...ooXouuuu                 ",
"    hhhh++++#.X.oo                                                                                                                                                                                                                                                                         MM                ..X.XooO+uuuu                 ",
"         lxczzllO+OO..XX                                                                                                                                                                                                                                                                      SCB        .oooXdfffszzj                     ",
"           hxxxzOOO+..X.                                                                                                                                                                                                                                                                      ASAB    XXXXXooofffgzh                       ",
"            xxxcO+OOooo.X                                                                                                                                                                                                                                                                        S    XXXoooooffff                         ",
"                cclffspp****.X..                                                                                                                                                                                                                                                              oO#$ye412>>15hzcx                            ",
"                   xxjhs****...X                                                                                                                                                                                                                                                              oOOO20r044quvzz                              ",
"                    klll****X.X..                                                                                                                                                                                                                                                             oooo:>8ps0eyd                                ",
"                    llll*=**ooX.XX.X                                                                                                                                                                                                                                                       X...ooO,8wyfjr8                                 ",
"                          ckcgie5555OOOO...X                                                                                                                                                                                                                                          OoOo<<<<eyphxlc     y                                ",
"                            lccl0666OOOO....                                                                                                                                                                                                                                       XX.oOoo<<<<hjzz        Vz                               ",
"                            xxxx0009OOOOXXXX                                                                                                                                                                                                                                      XXXoOoOO<111llkl                                         ",
"                            cccc9000@@++O..Xo..                                                                                                                                                                                                                                 o.XoXoo+#$1111llll                                         ",
"                                     gchlhss;;;-ooooXX                                                                                                                                                                                                                    XXXX&%%&papdpgzg                                                 ",
"                                       lzzzj;;;;oooo..Xo                                                                                                                                                                                                                ...oXX&%%&ffhjhj                                                   ",
"                                        zzzx;>;;Oooo....                                                                                                                                                                                                              ...X.oXo&&&&hjjh                                                     ",
"                                        zzcz;;;;@OOO#o.oXX..                                                                                                                                                                                                       XXXXoXoooO@*&&&hhhh                                                     ",
"                                                kkzxfdpy,,,,XoooXXXX                                                                                                                                                                                      XoXXXXXX-===pppdacll                                                             ",
"                                                    jjhj,,,>ooXoXXXX                                                                                                                                                                                      XXoX.XXX===-dgggzg                                                               ",
"                                                    hhhh<<<<OOOXooXXXXX.                                                                                                                                                                               ..oXX.XXXoO-;--fggd                                                                 ",
"                                                           gvlfhpte6eeee&&&&XXXoXXX                                                                                                                                                        XXXXXX.X&%&55970qtytjhzbg                                                                       ",
"                                                               jllhgteee&&&&oXXXXXX                                                                                                                                                        XXXXXoX.%%%7779sddjzlz                                                                          ",
"                                                                jhlkyyyt&&&&XoooXX....                                                                                                                                                   XXXXXXXX..&&&7090hhhg                                                                             ",
"                                                                lllkttyy&*&&OOoooXoo..XXXX                                                                                                                                           XXXXXXXXXOXO+#&&&7009hhhg                                                                             ",
"                                                                           xhvlsgdypppp,>,>$$$$XOXoXXXX                                                                                                                ...o.Xo.@@O@--;-ttttdfklskzhx                                                                                       ",
"                                                                               zkhlhhhd>>>>$$$$XXXXXXXX                                                                                                                .oo.oXX.O@@@-;;-yyyucbxcjp                                                                                          ",
"                                                                                jhhhhgh,,>,%%$$OOXXXXXXXXXXX                                                                                                       .o.o.X.XXXoo#O@#-;;-iiuucvvv                                                                                            ",
"                                                                                hjjhggh>>,>$%%%&%%$$##XXOXXXXXXXX...                                                                                       ......X....o.o#$@#%%@###;-;;yyyyvvvv                                                                                            ",
"                                                                                               dzlgckgggdsseeee::::####OOOOXX.XXXXXXXX.X                                               XXXXXXXX....Oooo$$#%:>;>qqqqpppddhgkbjlxd                                                                                                           ",
"                                                                                                   lkxxhkkkeeee::::####OOoO.XXXXXXX.XXXX.XXo.. XXX.           ...           ...   .XX..XXXXXXXXX...ooOo$%%%:;>;wqqeddffkklh                                                                                                                ",
"                                                                                                   xlxljhjjeree:::>####OOOOoOXX@OXOOX.oX........XXXXXX...XX...................X........oo.XOOXOXooOOOOO%$%%>::>qqqeddddlhkl                                                                                                                ",
"                                                                                                                     hvzhvvhhnhpdhytuy0eeq5qq05qq09qe00qwwqtyyypppp80qq00qq080q050e05etqepseujdphvhfvcflvg                                                                                                                                 ",
"                                                                                                                               j dhzlfzzhhzjdgjssdfdadddpaddssdffdfsdsasdaadhdafzhdzvjjvckcchdlh                                                                                                                                           ",
"                                                                                                                                       fhjfhhjgfhgffggfdffddffdfghgffffffjhdghhhhkjjkzl                                                                                                                                                    ",
"                                                                                                                                           hhhhfffffdffddddddddffggfdfffdfdggggjjjk                                                                                                                                                        "
};
